<svg width="19" height="20" viewBox="0 0 19 20" fill="none" xmlns="http://www.w3.org/2000/svg">
<path d="M1.5 0.5H17.5" stroke="black" stroke-linecap="round"/>
<path d="M12.1339 14.1141L11.6259 12.779H7.30141L6.79349 14.1431C6.59516 14.6752 6.42586 15.0356 6.28557 15.2243C6.14529 15.4081 5.91552 15.5 5.59626 15.5C5.32537 15.5 5.08593 15.4008 4.87792 15.2025C4.66992 15.0042 4.56592 14.7792 4.56592 14.5277C4.56592 14.3826 4.5901 14.2326 4.63848 14.0778C4.68685 13.923 4.76667 13.7078 4.87792 13.4321L7.5989 6.52441C7.6763 6.32608 7.7682 6.08905 7.87462 5.81332C7.98588 5.53276 8.10198 5.30057 8.22291 5.11675C8.34868 4.93294 8.51073 4.7854 8.70906 4.67414C8.91222 4.55805 9.16134 4.5 9.45642 4.5C9.75633 4.5 10.0055 4.55805 10.2038 4.67414C10.4069 4.7854 10.569 4.93052 10.6899 5.1095C10.8157 5.28848 10.9197 5.48197 11.0019 5.68997C11.089 5.89314 11.1978 6.16645 11.3285 6.50989L14.1075 13.374C14.3252 13.8964 14.434 14.2762 14.434 14.5132C14.434 14.7599 14.33 14.9872 14.122 15.1953C13.9188 15.3984 13.6721 15.5 13.3819 15.5C13.2126 15.5 13.0675 15.4686 12.9465 15.4057C12.8256 15.3476 12.724 15.2678 12.6418 15.1662C12.5595 15.0598 12.4701 14.9002 12.3733 14.6873C12.2814 14.4697 12.2016 14.2786 12.1339 14.1141ZM7.86737 11.161H11.0455L9.44191 6.77111L7.86737 11.161Z" fill="black"/>
<path d="M1.5 19.5H17.5" stroke="black" stroke-linecap="round"/>
</svg>
