<svg width="24" height="24" viewBox="0 0 24 24" fill="none" xmlns="http://www.w3.org/2000/svg">
<g id="accessibility_new">
<mask id="mask0_134_1541" style="mask-type:alpha" maskUnits="userSpaceOnUse" x="0" y="0" width="24" height="24">
<rect id="Bounding box" width="24" height="24" fill="#D9D9D9"/>
</mask>
<g mask="url(#mask0_134_1541)">
<path id="accessibility_new_2" d="M12 6C11.45 6 10.9792 5.80417 10.5875 5.4125C10.1958 5.02083 10 4.55 10 4C10 3.45 10.1958 2.97917 10.5875 2.5875C10.9792 2.19583 11.45 2 12 2C12.55 2 13.0208 2.19583 13.4125 2.5875C13.8042 2.97917 14 3.45 14 4C14 4.55 13.8042 5.02083 13.4125 5.4125C13.0208 5.80417 12.55 6 12 6ZM10 22C9.44772 22 9 21.5523 9 21V9.92013C9 9.40004 8.60118 8.96814 8.08407 8.91252C7.38079 8.83688 6.66944 8.74104 5.95 8.625C5.26265 8.51414 4.59742 8.38484 3.95431 8.2371C3.42241 8.11491 3.10614 7.57542 3.23851 7.04596L3.25306 6.98778C3.38871 6.44515 3.94276 6.12113 4.48843 6.24404C5.49534 6.47084 6.5492 6.64366 7.65 6.7625C9.11667 6.92083 10.5667 7 12 7C13.4333 7 14.8833 6.92083 16.35 6.7625C17.4508 6.64366 18.5047 6.47084 19.5116 6.24404C20.0572 6.12113 20.6113 6.44515 20.7469 6.98778L20.7615 7.04596C20.8939 7.57542 20.5776 8.11491 20.0457 8.2371C19.4026 8.38484 18.7374 8.51414 18.05 8.625C17.3306 8.74104 16.6192 8.83688 15.9159 8.91252C15.3988 8.96814 15 9.40004 15 9.92013V21C15 21.5523 14.5523 22 14 22V22C13.4477 22 13 21.5523 13 21V16C13 15.4477 12.5523 15 12 15V15C11.4477 15 11 15.4477 11 16V21C11 21.5523 10.5523 22 10 22V22Z" fill="white"/>
</g>
</g>
</svg>
