<svg width="24" height="24" viewBox="0 0 24 24" fill="none" xmlns="http://www.w3.org/2000/svg">
<path d="M4.88607 23.0674L4.55814 22.1689H1.7661L1.43818 23.0869C1.31013 23.445 1.20083 23.6875 1.11026 23.8145C1.01969 23.9382 0.871341 24 0.665217 24C0.490324 24 0.335732 23.9333 0.201439 23.7998C0.0671463 23.6663 0 23.515 0 23.3457C0 23.248 0.0156154 23.1471 0.0468463 23.043C0.0780771 22.9388 0.129608 22.7939 0.201439 22.6084L1.95817 17.96C2.00814 17.8265 2.06748 17.667 2.13619 17.4814C2.20802 17.2926 2.28298 17.1364 2.36105 17.0127C2.44225 16.889 2.54688 16.7897 2.67492 16.7148C2.80609 16.6367 2.96693 16.5977 3.15744 16.5977C3.35107 16.5977 3.51191 16.6367 3.63996 16.7148C3.77113 16.7897 3.87575 16.8874 3.95383 17.0078C4.03503 17.1283 4.10217 17.2585 4.15526 17.3984C4.21148 17.5352 4.28175 17.7191 4.36607 17.9502L6.16029 22.5693C6.30082 22.9209 6.37109 23.1764 6.37109 23.3359C6.37109 23.502 6.30395 23.6549 6.16965 23.7949C6.03849 23.9316 5.87921 24 5.69182 24C5.58251 24 5.48882 23.9788 5.41075 23.9365C5.33267 23.8975 5.26708 23.8437 5.21399 23.7754C5.1609 23.7038 5.10312 23.5964 5.04066 23.4531C4.98132 23.3066 4.92979 23.1781 4.88607 23.0674ZM2.13151 21.0801H4.18337L3.14807 18.126L2.13151 21.0801Z" fill="black"/>
<path d="M20.5976 22.0417L19.8462 20.1551H13.4493L12.6979 22.0827C12.4046 22.8346 12.1541 23.3438 11.9466 23.6104C11.7391 23.8701 11.3992 24 10.9269 24C10.5262 24 10.172 23.8599 9.86436 23.5796C9.55667 23.2994 9.40283 22.9815 9.40283 22.6261C9.40283 22.421 9.43861 22.2091 9.51016 21.9904C9.58172 21.7717 9.69978 21.4675 9.86436 21.0779L13.8893 11.3169C14.0038 11.0367 14.1398 10.7017 14.2972 10.3121C14.4618 9.91566 14.6335 9.58756 14.8124 9.32781C14.9984 9.06807 15.2381 8.85959 15.5315 8.70237C15.832 8.53832 16.2005 8.4563 16.637 8.4563C17.0807 8.4563 17.4492 8.53832 17.7425 8.70237C18.0431 8.85959 18.2828 9.06465 18.4617 9.31756C18.6477 9.57047 18.8015 9.84389 18.9232 10.1378C19.052 10.4249 19.213 10.8111 19.4062 11.2964L23.517 20.9958C23.839 21.7341 24 22.2706 24 22.6056C24 22.9542 23.8462 23.2754 23.5385 23.5694C23.2379 23.8565 22.873 24 22.4437 24C22.1932 24 21.9786 23.9556 21.7997 23.8667C21.6208 23.7847 21.4705 23.6719 21.3489 23.5284C21.2273 23.378 21.0949 23.1524 20.9518 22.8517C20.8158 22.5441 20.6977 22.2741 20.5976 22.0417ZM14.2864 17.8686H18.9876L16.6156 11.6655L14.2864 17.8686Z" fill="black"/>
</svg>
