<svg width="54" height="54" viewBox="0 0 54 54" fill="none" xmlns="http://www.w3.org/2000/svg">
<circle cx="27" cy="27" r="27" fill="#68202C" fill-opacity="0.1"/>
<rect x="12" y="12" width="30" height="30" rx="15" fill="#33CCFF"/>
<path d="M34.4457 22.2504C33.9503 22.4638 33.4295 22.6123 32.8962 22.6925C33.1456 22.6497 33.5124 22.2005 33.6585 22.0187C33.8803 21.7444 34.0494 21.4313 34.1571 21.0953C34.1571 21.0704 34.1821 21.0347 34.1571 21.0169C34.1446 21.01 34.1305 21.0064 34.1162 21.0064C34.1019 21.0064 34.0878 21.01 34.0752 21.0169C33.4961 21.3308 32.8798 21.5703 32.2409 21.7299C32.2186 21.7367 32.1949 21.7373 32.1723 21.7317C32.1497 21.726 32.1291 21.7143 32.1126 21.6978C32.0629 21.6385 32.0094 21.5826 31.9524 21.5303C31.6918 21.2966 31.3961 21.1053 31.0761 20.9634C30.6443 20.7861 30.1778 20.7093 29.712 20.7388C29.2599 20.7674 28.8186 20.8888 28.4155 21.0953C28.0184 21.3131 27.6695 21.609 27.3896 21.9652C27.0953 22.3318 26.8827 22.7573 26.7663 23.2129C26.6703 23.6464 26.6595 24.0944 26.7343 24.532C26.7343 24.6069 26.7343 24.6176 26.6702 24.6069C24.1306 24.2325 22.0469 23.3306 20.3443 21.3948C20.2695 21.3092 20.2304 21.3092 20.1698 21.3948C19.4289 22.5213 19.7887 24.3038 20.7148 25.1844C20.8394 25.302 20.9677 25.4161 21.103 25.5231C20.6784 25.4929 20.2642 25.3777 19.8849 25.1844C19.8136 25.1381 19.7744 25.163 19.7709 25.2486C19.7608 25.3672 19.7608 25.4864 19.7709 25.6051C19.8452 26.1735 20.069 26.7121 20.4195 27.1656C20.7699 27.619 21.2344 27.9712 21.7655 28.1861C21.895 28.2416 22.0299 28.2834 22.168 28.3109C21.7749 28.3884 21.3718 28.4004 20.9748 28.3466C20.8893 28.3287 20.8572 28.3751 20.8893 28.4571C21.4129 29.8831 22.5491 30.318 23.3826 30.5604C23.4966 30.5782 23.6105 30.5782 23.7388 30.6068C23.7388 30.6068 23.7388 30.6068 23.7174 30.6282C23.4716 31.0773 22.4779 31.3804 22.022 31.5372C21.1898 31.8364 20.3026 31.9508 19.4218 31.8723C19.2829 31.851 19.2508 31.8545 19.2152 31.8723C19.1796 31.8902 19.2152 31.9294 19.2544 31.965C19.4325 32.0827 19.6106 32.1861 19.7958 32.2859C20.3472 32.5869 20.9301 32.826 21.534 32.9989C24.6613 33.8616 28.1804 33.227 30.5276 30.892C32.3727 29.0596 33.0209 26.532 33.0209 24.0008C33.0209 23.9046 33.1385 23.8475 33.2061 23.7976C33.6729 23.4336 34.0844 23.0037 34.4278 22.5213C34.4873 22.4494 34.5178 22.3579 34.5133 22.2647C34.5133 22.2112 34.5133 22.2219 34.4457 22.2504Z" fill="white"/>
</svg>
