<svg width="54" height="54" viewBox="0 0 54 54" fill="none" xmlns="http://www.w3.org/2000/svg">
<circle cx="27" cy="27" r="27" fill="#68202C" fill-opacity="0.1"/>
<circle cx="27" cy="27" r="15" fill="white"/>
<mask id="mask0_134_2391" style="mask-type:alpha" maskUnits="userSpaceOnUse" x="14" y="15" width="25" height="25">
<rect x="14.8418" y="15.2473" width="24" height="24" fill="#D9D9D9"/>
</mask>
<g mask="url(#mask0_134_2391)">
<path d="M28.9456 31.0822L26.3187 33.2865C25.4102 34.0488 24.3672 34.3784 23.1896 34.2754C22.012 34.1723 21.0421 33.6666 20.2798 32.7581C19.5175 31.8497 19.1878 30.8066 19.2909 29.629C19.3939 28.4514 19.8996 27.4815 20.8081 26.7192L23.435 24.515L24.5371 25.8284L21.9102 28.0326C21.363 28.4919 21.0585 29.0737 20.9969 29.7783C20.9352 30.4828 21.134 31.1087 21.5932 31.656C22.0524 32.2033 22.6343 32.5077 23.3389 32.5694C24.0434 32.631 24.6693 32.4322 25.2166 31.973L27.8435 29.7688L28.9456 31.0822ZM24.7712 30.1085L23.6691 28.795L28.9229 24.3866L30.025 25.7L24.7712 30.1085ZM30.2591 29.9801L29.157 28.6667L31.7839 26.4624C32.3311 26.0032 32.6356 25.4213 32.6972 24.7168C32.7589 24.0122 32.5601 23.3863 32.1009 22.8391C31.6416 22.2918 31.0598 21.9873 30.3552 21.9257C29.6507 21.864 29.0248 22.0628 28.4775 22.522L25.8506 24.7263L24.7485 23.4128L27.3754 21.2086C28.2839 20.4463 29.3269 20.1167 30.5045 20.2197C31.6821 20.3227 32.652 20.8285 33.4143 21.7369C34.1766 22.6454 34.5063 23.6884 34.4032 24.866C34.3002 26.0436 33.7945 27.0136 32.886 27.7759L30.2591 29.9801Z" fill="#68202C"/>
</g>
</svg>
