<svg width="54" height="54" viewBox="0 0 54 54" fill="none" xmlns="http://www.w3.org/2000/svg">
<circle cx="27" cy="27" r="27" fill="#68202C" fill-opacity="0.1"/>
<rect x="12" y="12" width="30" height="30" rx="15" fill="white"/>
<path d="M20.0906 33H22.6354V26.8197L19 24.0931V31.9093C19 32.5128 19.489 33 20.0906 33Z" fill="#4285F4"/>
<path d="M31.3602 33H33.905C34.5084 33 34.9956 32.511 34.9956 31.9093V24.0931L31.3602 26.8197" fill="#34A853"/>
<path d="M31.3602 22.0937V26.8198L34.9956 24.0932V22.639C34.9956 21.2903 33.456 20.5214 32.3781 21.3303" fill="#FBBC04"/>
<path d="M22.6358 26.8197V22.0936L26.9983 25.3655L31.3609 22.0936V26.8197L26.9983 30.0916" fill="#EA4335"/>
<path d="M19 22.639V24.0932L22.6354 26.8198V22.0937L21.6175 21.3303C20.5378 20.5214 19 21.2903 19 22.639Z" fill="#C5221F"/>
</svg>
