<svg width="20" height="21" viewBox="0 0 20 21" fill="none" xmlns="http://www.w3.org/2000/svg">
<rect y="0.5" width="20" height="20" rx="10" fill="#68202C" fill-opacity="0.2"/>
<path d="M6.888 14.5V5.98H10.656C11.048 5.98 11.408 6.06 11.736 6.22C12.072 6.38 12.36 6.596 12.6 6.868C12.848 7.14 13.036 7.444 13.164 7.78C13.3 8.116 13.368 8.46 13.368 8.812C13.368 9.172 13.304 9.52 13.176 9.856C13.056 10.184 12.88 10.472 12.648 10.72C12.416 10.968 12.144 11.16 11.832 11.296L13.776 14.5H11.952L10.2 11.644H8.544V14.5H6.888ZM8.544 10.192H10.62C10.828 10.192 11.012 10.132 11.172 10.012C11.332 9.884 11.46 9.716 11.556 9.508C11.652 9.3 11.7 9.068 11.7 8.812C11.7 8.54 11.644 8.304 11.532 8.104C11.42 7.896 11.276 7.732 11.1 7.612C10.932 7.492 10.748 7.432 10.548 7.432H8.544V10.192Z" fill="#363636"/>
</svg>
