<svg width="608" height="193" viewBox="0 0 608 193" fill="none" xmlns="http://www.w3.org/2000/svg">
<path d="M9.24 82.4504C10.472 82.4504 11.48 82.6371 12.264 83.0104C13.0667 83.3651 13.776 83.7851 14.392 84.2704C14.7653 84.5504 15.0453 84.5878 15.232 84.3824C15.4373 84.1584 15.5773 83.6451 15.652 82.8424H16.296C16.2587 83.5518 16.2307 84.4104 16.212 85.4184C16.1933 86.4078 16.184 87.7331 16.184 89.3944H15.54C15.4093 88.5731 15.2787 87.9011 15.148 87.3784C15.036 86.8558 14.8773 86.4078 14.672 86.0344C14.4853 85.6611 14.224 85.2971 13.888 84.9424C13.3467 84.2704 12.684 83.7851 11.9 83.4864C11.116 83.1878 10.2853 83.0384 9.408 83.0384C8.456 83.0384 7.616 83.2811 6.888 83.7664C6.16 84.2331 5.544 84.9051 5.04 85.7824C4.55467 86.6598 4.18133 87.6958 3.92 88.8904C3.65867 90.0851 3.528 91.3918 3.528 92.8104C3.528 94.2664 3.668 95.5918 3.948 96.7864C4.228 97.9624 4.62933 98.9798 5.152 99.8384C5.69333 100.678 6.33733 101.332 7.084 101.798C7.84933 102.246 8.69867 102.47 9.632 102.47C10.3973 102.47 11.1907 102.321 12.012 102.022C12.8333 101.705 13.4867 101.229 13.972 100.594C14.4947 100.034 14.8493 99.4091 15.036 98.7184C15.2413 98.0091 15.4093 97.0478 15.54 95.8344H16.184C16.184 97.5518 16.1933 98.9424 16.212 100.006C16.2307 101.052 16.2587 101.938 16.296 102.666H15.652C15.5773 101.864 15.4467 101.36 15.26 101.154C15.092 100.949 14.8027 100.977 14.392 101.238C13.7013 101.724 12.964 102.153 12.18 102.526C11.4147 102.881 10.4253 103.058 9.212 103.058C7.364 103.058 5.74933 102.657 4.368 101.854C2.98667 101.052 1.91333 99.8944 1.148 98.3824C0.382667 96.8704 0 95.0504 0 92.9224C0 90.8318 0.392 89.0024 1.176 87.4344C1.97867 85.8664 3.07067 84.6438 4.452 83.7664C5.83333 82.8891 7.42933 82.4504 9.24 82.4504Z" fill="white"/>
<path d="M26.9174 87.8264C28.1681 87.8264 29.2787 88.0878 30.2494 88.6104C31.2201 89.1331 31.9947 89.9544 32.5734 91.0744C33.1521 92.1944 33.4414 93.6598 33.4414 95.4704C33.4414 97.2811 33.1521 98.7464 32.5734 99.8664C31.9947 100.968 31.2201 101.78 30.2494 102.302C29.2787 102.806 28.1681 103.058 26.9174 103.058C25.6854 103.058 24.5747 102.806 23.5854 102.302C22.5961 101.78 21.8121 100.968 21.2334 99.8664C20.6734 98.7464 20.3934 97.2811 20.3934 95.4704C20.3934 93.6598 20.6734 92.1944 21.2334 91.0744C21.8121 89.9544 22.5961 89.1331 23.5854 88.6104C24.5747 88.0878 25.6854 87.8264 26.9174 87.8264ZM26.9174 88.3864C25.9467 88.3864 25.1534 88.9464 24.5374 90.0664C23.9214 91.1678 23.6134 92.9691 23.6134 95.4704C23.6134 97.9718 23.9214 99.7731 24.5374 100.874C25.1534 101.957 25.9467 102.498 26.9174 102.498C27.8694 102.498 28.6534 101.957 29.2694 100.874C29.9041 99.7731 30.2214 97.9718 30.2214 95.4704C30.2214 92.9691 29.9041 91.1678 29.2694 90.0664C28.6534 88.9464 27.8694 88.3864 26.9174 88.3864Z" fill="white"/>
<path d="M46.2853 87.8264C47.032 87.8264 47.6386 87.9291 48.1053 88.1344C48.5906 88.3211 48.992 88.5824 49.3093 88.9184C49.6453 89.2731 49.8786 89.7304 50.0093 90.2904C50.1586 90.8504 50.2333 91.6064 50.2333 92.5584V100.062C50.2333 100.846 50.3826 101.378 50.6813 101.658C50.9986 101.938 51.5213 102.078 52.2493 102.078V102.666C51.932 102.648 51.4373 102.629 50.7653 102.61C50.0933 102.573 49.4306 102.554 48.7773 102.554C48.1426 102.554 47.508 102.573 46.8733 102.61C46.2573 102.629 45.7906 102.648 45.4733 102.666V102.078C46.108 102.078 46.556 101.938 46.8173 101.658C47.0786 101.378 47.2093 100.846 47.2093 100.062V91.7744C47.2093 91.2331 47.1626 90.7478 47.0693 90.3184C46.976 89.8704 46.78 89.5158 46.4813 89.2544C46.1826 88.9744 45.7346 88.8344 45.1373 88.8344C44.4466 88.8344 43.8306 89.0304 43.2893 89.4224C42.7666 89.8144 42.3466 90.3558 42.0293 91.0464C41.7306 91.7184 41.5813 92.4744 41.5813 93.3144V100.062C41.5813 100.846 41.712 101.378 41.9733 101.658C42.2533 101.938 42.7013 102.078 43.3173 102.078V102.666C43.0186 102.648 42.5613 102.629 41.9453 102.61C41.348 102.573 40.7226 102.554 40.0693 102.554C39.4346 102.554 38.772 102.573 38.0813 102.61C37.3906 102.629 36.8773 102.648 36.5413 102.666V102.078C37.2693 102.078 37.7826 101.938 38.0813 101.658C38.3986 101.378 38.5573 100.846 38.5573 100.062V91.2704C38.5573 90.4304 38.4173 89.8144 38.1373 89.4224C37.8573 89.0118 37.3253 88.8064 36.5413 88.8064V88.2184C37.1386 88.2744 37.7173 88.3024 38.2773 88.3024C38.912 88.3024 39.5 88.2744 40.0413 88.2184C40.6013 88.1438 41.1146 88.0411 41.5813 87.9104V90.9624C42.0666 89.8051 42.7293 88.9931 43.5693 88.5264C44.428 88.0598 45.3333 87.8264 46.2853 87.8264Z" fill="white"/>
<path d="M59.7404 87.8264C60.4871 87.8264 61.1311 87.9478 61.6724 88.1904C62.2324 88.4144 62.6337 88.6198 62.8764 88.8064C63.4924 89.2918 63.8751 88.9744 64.0244 87.8544H64.6404C64.6031 88.3771 64.5751 89.0118 64.5564 89.7584C64.5377 90.4864 64.5284 91.4571 64.5284 92.6704H63.9124C63.8004 91.9798 63.6044 91.3078 63.3244 90.6544C63.0631 90.0011 62.6711 89.4598 62.1484 89.0304C61.6444 88.6011 60.9817 88.3864 60.1604 88.3864C59.5444 88.3864 59.0311 88.5638 58.6204 88.9184C58.2097 89.2544 58.0044 89.7584 58.0044 90.4304C58.0044 90.9904 58.1724 91.4758 58.5084 91.8864C58.8444 92.2971 59.2737 92.6798 59.7964 93.0344C60.3377 93.3891 60.9164 93.7718 61.5324 94.1824C62.2231 94.6491 62.8391 95.1158 63.3804 95.5824C63.9404 96.0304 64.3791 96.5344 64.6964 97.0944C65.0324 97.6544 65.2004 98.3078 65.2004 99.0544C65.2004 99.9131 64.9671 100.641 64.5004 101.238C64.0524 101.836 63.4551 102.293 62.7084 102.61C61.9617 102.909 61.1404 103.058 60.2444 103.058C59.7964 103.058 59.3764 103.012 58.9844 102.918C58.5924 102.844 58.2284 102.741 57.8924 102.61C57.6871 102.498 57.4817 102.386 57.2764 102.274C57.0897 102.144 56.9031 102.022 56.7164 101.91C56.5297 101.78 56.3617 101.798 56.2124 101.966C56.0631 102.134 55.9511 102.433 55.8764 102.862H55.2604C55.2977 102.265 55.3257 101.537 55.3444 100.678C55.3631 99.8198 55.3724 98.6811 55.3724 97.2624H55.9884C56.1191 98.2891 56.3151 99.1944 56.5764 99.9784C56.8377 100.762 57.2204 101.378 57.7244 101.826C58.2471 102.256 58.9564 102.47 59.8524 102.47C60.2071 102.47 60.5617 102.396 60.9164 102.246C61.2711 102.078 61.5604 101.817 61.7844 101.462C62.0271 101.108 62.1484 100.632 62.1484 100.034C62.1484 99.2131 61.8591 98.5411 61.2804 98.0184C60.7204 97.4771 59.9924 96.9078 59.0964 96.3104C58.4617 95.8624 57.8551 95.4238 57.2764 94.9944C56.7164 94.5464 56.2591 94.0518 55.9044 93.5104C55.5497 92.9504 55.3724 92.2878 55.3724 91.5224C55.3724 90.6824 55.5684 89.9918 55.9604 89.4504C56.3711 88.9091 56.9124 88.5078 57.5844 88.2464C58.2564 87.9664 58.9751 87.8264 59.7404 87.8264Z" fill="white"/>
<path d="M73.2126 83.5984V88.2464H77.0766V88.8064H73.2126V99.8104C73.2126 100.576 73.3526 101.117 73.6326 101.434C73.9126 101.752 74.3139 101.91 74.8366 101.91C75.3219 101.91 75.7512 101.714 76.1246 101.322C76.5166 100.93 76.8526 100.268 77.1326 99.3344L77.6646 99.5304C77.4406 100.52 77.0392 101.36 76.4606 102.05C75.9006 102.722 75.0699 103.058 73.9686 103.058C73.3339 103.058 72.8019 102.974 72.3726 102.806C71.9432 102.657 71.5699 102.433 71.2526 102.134C70.8419 101.705 70.5619 101.192 70.4126 100.594C70.2632 99.9971 70.1886 99.2038 70.1886 98.2144V88.8064H67.6126V88.2464H70.1886V84.1584C70.7672 84.1398 71.3086 84.0931 71.8126 84.0184C72.3166 83.9251 72.7832 83.7851 73.2126 83.5984Z" fill="white"/>
<path d="M82.6637 81.1624C83.2423 81.1624 83.7277 81.3491 84.1197 81.7224C84.5117 82.0771 84.7077 82.5251 84.7077 83.0664C84.7077 83.6078 84.5117 84.0651 84.1197 84.4384C83.7277 84.7931 83.2423 84.9704 82.6637 84.9704C82.085 84.9704 81.5997 84.7931 81.2077 84.4384C80.8157 84.0651 80.6197 83.6078 80.6197 83.0664C80.6197 82.5251 80.8157 82.0771 81.2077 81.7224C81.5997 81.3491 82.085 81.1624 82.6637 81.1624ZM84.3437 87.9104V100.062C84.3437 100.846 84.493 101.378 84.7917 101.658C85.109 101.938 85.6317 102.078 86.3597 102.078V102.666C86.0423 102.648 85.5477 102.629 84.8757 102.61C84.2223 102.573 83.5503 102.554 82.8597 102.554C82.2063 102.554 81.5343 102.573 80.8437 102.61C80.153 102.629 79.6397 102.648 79.3037 102.666V102.078C80.0317 102.078 80.545 101.938 80.8437 101.658C81.161 101.378 81.3197 100.846 81.3197 100.062V91.2704C81.3197 90.4304 81.1797 89.8144 80.8997 89.4224C80.6197 89.0118 80.0877 88.8064 79.3037 88.8064V88.2184C79.901 88.2744 80.4797 88.3024 81.0397 88.3024C81.6743 88.3024 82.2623 88.2744 82.8037 88.2184C83.3637 88.1438 83.877 88.0411 84.3437 87.9104Z" fill="white"/>
<path d="M93.7182 83.5984V88.2464H97.5822V88.8064H93.7182V99.8104C93.7182 100.576 93.8582 101.117 94.1382 101.434C94.4182 101.752 94.8195 101.91 95.3422 101.91C95.8275 101.91 96.2569 101.714 96.6302 101.322C97.0222 100.93 97.3582 100.268 97.6382 99.3344L98.1702 99.5304C97.9462 100.52 97.5449 101.36 96.9662 102.05C96.4062 102.722 95.5755 103.058 94.4742 103.058C93.8395 103.058 93.3075 102.974 92.8782 102.806C92.4489 102.657 92.0755 102.433 91.7582 102.134C91.3475 101.705 91.0675 101.192 90.9182 100.594C90.7689 99.9971 90.6942 99.2038 90.6942 98.2144V88.8064H88.1182V88.2464H90.6942V84.1584C91.2729 84.1398 91.8142 84.0931 92.3182 84.0184C92.8222 83.9251 93.2889 83.7851 93.7182 83.5984Z" fill="white"/>
<path d="M112.941 87.9104V99.6424C112.941 100.482 113.081 101.108 113.361 101.518C113.66 101.91 114.192 102.106 114.957 102.106V102.694C114.379 102.638 113.8 102.61 113.221 102.61C112.605 102.61 112.017 102.638 111.457 102.694C110.897 102.75 110.384 102.853 109.917 103.002V99.9504C109.451 101.07 108.797 101.873 107.957 102.358C107.136 102.825 106.268 103.058 105.353 103.058C104.663 103.058 104.075 102.956 103.589 102.75C103.104 102.564 102.703 102.312 102.385 101.994C102.049 101.621 101.816 101.145 101.685 100.566C101.555 99.9691 101.489 99.2224 101.489 98.3264V91.2704C101.489 90.4304 101.349 89.8144 101.069 89.4224C100.789 89.0118 100.257 88.8064 99.4733 88.8064V88.2184C100.071 88.2744 100.649 88.3024 101.209 88.3024C101.825 88.3024 102.413 88.2744 102.973 88.2184C103.533 88.1438 104.047 88.0411 104.513 87.9104V99.1104C104.513 99.6518 104.551 100.146 104.625 100.594C104.7 101.042 104.877 101.397 105.157 101.658C105.437 101.92 105.885 102.05 106.501 102.05C107.155 102.05 107.733 101.854 108.237 101.462C108.76 101.07 109.171 100.538 109.469 99.8664C109.768 99.1944 109.917 98.4384 109.917 97.5984V91.2704C109.917 90.4304 109.777 89.8144 109.497 89.4224C109.217 89.0118 108.685 88.8064 107.901 88.8064V88.2184C108.499 88.2744 109.077 88.3024 109.637 88.3024C110.253 88.3024 110.841 88.2744 111.401 88.2184C111.961 88.1438 112.475 88.0411 112.941 87.9104Z" fill="white"/>
<path d="M122.318 83.5984V88.2464H126.182V88.8064H122.318V99.8104C122.318 100.576 122.458 101.117 122.738 101.434C123.018 101.752 123.419 101.91 123.942 101.91C124.427 101.91 124.856 101.714 125.23 101.322C125.622 100.93 125.958 100.268 126.238 99.3344L126.77 99.5304C126.546 100.52 126.144 101.36 125.566 102.05C125.006 102.722 124.175 103.058 123.074 103.058C122.439 103.058 121.907 102.974 121.478 102.806C121.048 102.657 120.675 102.433 120.358 102.134C119.947 101.705 119.667 101.192 119.518 100.594C119.368 99.9971 119.294 99.2038 119.294 98.2144V88.8064H116.718V88.2464H119.294V84.1584C119.872 84.1398 120.414 84.0931 120.918 84.0184C121.422 83.9251 121.888 83.7851 122.318 83.5984Z" fill="white"/>
<path d="M131.769 81.1624C132.347 81.1624 132.833 81.3491 133.225 81.7224C133.617 82.0771 133.813 82.5251 133.813 83.0664C133.813 83.6078 133.617 84.0651 133.225 84.4384C132.833 84.7931 132.347 84.9704 131.769 84.9704C131.19 84.9704 130.705 84.7931 130.313 84.4384C129.921 84.0651 129.725 83.6078 129.725 83.0664C129.725 82.5251 129.921 82.0771 130.313 81.7224C130.705 81.3491 131.19 81.1624 131.769 81.1624ZM133.449 87.9104V100.062C133.449 100.846 133.598 101.378 133.897 101.658C134.214 101.938 134.737 102.078 135.465 102.078V102.666C135.147 102.648 134.653 102.629 133.981 102.61C133.327 102.573 132.655 102.554 131.965 102.554C131.311 102.554 130.639 102.573 129.949 102.61C129.258 102.629 128.745 102.648 128.409 102.666V102.078C129.137 102.078 129.65 101.938 129.949 101.658C130.266 101.378 130.425 100.846 130.425 100.062V91.2704C130.425 90.4304 130.285 89.8144 130.005 89.4224C129.725 89.0118 129.193 88.8064 128.409 88.8064V88.2184C129.006 88.2744 129.585 88.3024 130.145 88.3024C130.779 88.3024 131.367 88.2744 131.909 88.2184C132.469 88.1438 132.982 88.0411 133.449 87.9104Z" fill="white"/>
<path d="M144.923 87.8264C146.174 87.8264 147.285 88.0878 148.255 88.6104C149.226 89.1331 150.001 89.9544 150.579 91.0744C151.158 92.1944 151.447 93.6598 151.447 95.4704C151.447 97.2811 151.158 98.7464 150.579 99.8664C150.001 100.968 149.226 101.78 148.255 102.302C147.285 102.806 146.174 103.058 144.923 103.058C143.691 103.058 142.581 102.806 141.591 102.302C140.602 101.78 139.818 100.968 139.239 99.8664C138.679 98.7464 138.399 97.2811 138.399 95.4704C138.399 93.6598 138.679 92.1944 139.239 91.0744C139.818 89.9544 140.602 89.1331 141.591 88.6104C142.581 88.0878 143.691 87.8264 144.923 87.8264ZM144.923 88.3864C143.953 88.3864 143.159 88.9464 142.543 90.0664C141.927 91.1678 141.619 92.9691 141.619 95.4704C141.619 97.9718 141.927 99.7731 142.543 100.874C143.159 101.957 143.953 102.498 144.923 102.498C145.875 102.498 146.659 101.957 147.275 100.874C147.91 99.7731 148.227 97.9718 148.227 95.4704C148.227 92.9691 147.91 91.1678 147.275 90.0664C146.659 88.9464 145.875 88.3864 144.923 88.3864Z" fill="white"/>
<path d="M164.291 87.8264C165.038 87.8264 165.644 87.9291 166.111 88.1344C166.596 88.3211 166.998 88.5824 167.315 88.9184C167.651 89.2731 167.884 89.7304 168.015 90.2904C168.164 90.8504 168.239 91.6064 168.239 92.5584V100.062C168.239 100.846 168.388 101.378 168.687 101.658C169.004 101.938 169.527 102.078 170.255 102.078V102.666C169.938 102.648 169.443 102.629 168.771 102.61C168.099 102.573 167.436 102.554 166.783 102.554C166.148 102.554 165.514 102.573 164.879 102.61C164.263 102.629 163.796 102.648 163.479 102.666V102.078C164.114 102.078 164.562 101.938 164.823 101.658C165.084 101.378 165.215 100.846 165.215 100.062V91.7744C165.215 91.2331 165.168 90.7478 165.075 90.3184C164.982 89.8704 164.786 89.5158 164.487 89.2544C164.188 88.9744 163.74 88.8344 163.143 88.8344C162.452 88.8344 161.836 89.0304 161.295 89.4224C160.772 89.8144 160.352 90.3558 160.035 91.0464C159.736 91.7184 159.587 92.4744 159.587 93.3144V100.062C159.587 100.846 159.718 101.378 159.979 101.658C160.259 101.938 160.707 102.078 161.323 102.078V102.666C161.024 102.648 160.567 102.629 159.951 102.61C159.354 102.573 158.728 102.554 158.075 102.554C157.44 102.554 156.778 102.573 156.087 102.61C155.396 102.629 154.883 102.648 154.547 102.666V102.078C155.275 102.078 155.788 101.938 156.087 101.658C156.404 101.378 156.563 100.846 156.563 100.062V91.2704C156.563 90.4304 156.423 89.8144 156.143 89.4224C155.863 89.0118 155.331 88.8064 154.547 88.8064V88.2184C155.144 88.2744 155.723 88.3024 156.283 88.3024C156.918 88.3024 157.506 88.2744 158.047 88.2184C158.607 88.1438 159.12 88.0411 159.587 87.9104V90.9624C160.072 89.8051 160.735 88.9931 161.575 88.5264C162.434 88.0598 163.339 87.8264 164.291 87.8264Z" fill="white"/>
<path d="M176.486 102.862C175.702 102.862 175.03 102.713 174.47 102.414C173.91 102.116 173.49 101.705 173.21 101.182C172.93 100.66 172.79 100.062 172.79 99.3904C172.79 98.5691 172.977 97.9064 173.35 97.4024C173.724 96.8798 174.2 96.4598 174.778 96.1424C175.376 95.8251 176.001 95.5638 176.654 95.3584C177.326 95.1344 177.952 94.9291 178.53 94.7424C179.128 94.5371 179.613 94.3038 179.986 94.0424C180.378 93.7811 180.574 93.4358 180.574 93.0064V91.1024C180.574 90.4304 180.462 89.8984 180.238 89.5064C180.033 89.0958 179.744 88.8064 179.37 88.6384C179.016 88.4704 178.586 88.3864 178.082 88.3864C177.653 88.3864 177.196 88.4518 176.71 88.5824C176.225 88.6944 175.842 88.9278 175.562 89.2824C175.973 89.3944 176.309 89.6184 176.57 89.9544C176.85 90.2718 176.99 90.6731 176.99 91.1584C176.99 91.6811 176.813 92.0918 176.458 92.3904C176.122 92.6891 175.693 92.8384 175.17 92.8384C174.592 92.8384 174.162 92.6611 173.882 92.3064C173.602 91.9331 173.462 91.5038 173.462 91.0184C173.462 90.5144 173.584 90.1038 173.826 89.7864C174.088 89.4691 174.424 89.1704 174.834 88.8904C175.282 88.5918 175.852 88.3398 176.542 88.1344C177.252 87.9291 178.036 87.8264 178.894 87.8264C179.697 87.8264 180.388 87.9198 180.966 88.1064C181.564 88.2744 182.058 88.5544 182.45 88.9464C182.917 89.3758 183.225 89.9171 183.374 90.5704C183.524 91.2051 183.598 91.9798 183.598 92.8944V100.622C183.598 101.089 183.654 101.425 183.766 101.63C183.897 101.817 184.102 101.91 184.382 101.91C184.569 101.91 184.746 101.864 184.914 101.77C185.101 101.677 185.316 101.537 185.558 101.35L185.838 101.826C185.446 102.144 185.045 102.396 184.634 102.582C184.242 102.769 183.738 102.862 183.122 102.862C182.525 102.862 182.04 102.769 181.666 102.582C181.293 102.396 181.013 102.125 180.826 101.77C180.658 101.416 180.574 100.977 180.574 100.454C180.089 101.238 179.51 101.836 178.838 102.246C178.166 102.657 177.382 102.862 176.486 102.862ZM177.83 101.518C178.353 101.518 178.838 101.369 179.286 101.07C179.753 100.772 180.182 100.324 180.574 99.7264V94.1544C180.369 94.4531 180.07 94.7144 179.678 94.9384C179.286 95.1438 178.866 95.3584 178.418 95.5824C177.97 95.8064 177.541 96.0678 177.13 96.3664C176.738 96.6464 176.412 97.0104 176.15 97.4584C175.889 97.9064 175.758 98.4758 175.758 99.1664C175.758 99.8944 175.945 100.473 176.318 100.902C176.692 101.313 177.196 101.518 177.83 101.518Z" fill="white"/>
<path d="M192.667 80.7144V100.062C192.667 100.846 192.816 101.378 193.115 101.658C193.432 101.938 193.955 102.078 194.683 102.078V102.666C194.366 102.648 193.871 102.629 193.199 102.61C192.527 102.573 191.855 102.554 191.183 102.554C190.511 102.554 189.83 102.573 189.139 102.61C188.467 102.629 187.963 102.648 187.627 102.666V102.078C188.355 102.078 188.868 101.938 189.167 101.658C189.484 101.378 189.643 100.846 189.643 100.062V84.0744C189.643 83.2344 189.503 82.6184 189.223 82.2264C188.943 81.8158 188.411 81.6104 187.627 81.6104V81.0224C188.224 81.0784 188.803 81.1064 189.363 81.1064C189.979 81.1064 190.567 81.0784 191.127 81.0224C191.687 80.9478 192.2 80.8451 192.667 80.7144Z" fill="white"/>
<path d="M213.137 82.8424V83.4024C212.503 83.4211 212.017 83.4958 211.681 83.6264C211.364 83.7384 211.149 83.9624 211.037 84.2984C210.925 84.6158 210.869 85.1198 210.869 85.8104V99.8104C210.869 100.445 210.916 100.921 211.009 101.238C211.121 101.556 211.327 101.77 211.625 101.882C211.943 101.976 212.391 102.022 212.969 102.022H214.789C215.592 102.022 216.264 101.91 216.805 101.686C217.365 101.462 217.832 101.126 218.205 100.678C218.579 100.23 218.868 99.6518 219.073 98.9424C219.279 98.2331 219.437 97.4024 219.549 96.4504H220.193C220.137 97.0478 220.109 97.8318 220.109 98.8024C220.109 99.1758 220.119 99.7264 220.137 100.454C220.175 101.164 220.231 101.901 220.305 102.666C219.353 102.629 218.28 102.61 217.085 102.61C215.891 102.592 214.827 102.582 213.893 102.582C213.464 102.582 212.913 102.582 212.241 102.582C211.569 102.582 210.841 102.592 210.057 102.61C209.292 102.61 208.508 102.62 207.705 102.638C206.921 102.638 206.165 102.648 205.437 102.666V102.106C206.072 102.069 206.548 101.994 206.865 101.882C207.183 101.77 207.388 101.546 207.481 101.21C207.593 100.874 207.649 100.37 207.649 99.6984V85.8104C207.649 85.1198 207.593 84.6158 207.481 84.2984C207.388 83.9624 207.173 83.7384 206.837 83.6264C206.52 83.4958 206.053 83.4211 205.437 83.4024V82.8424C205.867 82.8611 206.417 82.8798 207.089 82.8984C207.78 82.9171 208.517 82.9264 209.301 82.9264C210.011 82.9264 210.711 82.9171 211.401 82.8984C212.111 82.8798 212.689 82.8611 213.137 82.8424Z" fill="white"/>
<path d="M226.849 102.862C226.065 102.862 225.393 102.713 224.833 102.414C224.273 102.116 223.853 101.705 223.573 101.182C223.293 100.66 223.153 100.062 223.153 99.3904C223.153 98.5691 223.34 97.9064 223.713 97.4024C224.086 96.8798 224.562 96.4598 225.141 96.1424C225.738 95.8251 226.364 95.5638 227.017 95.3584C227.689 95.1344 228.314 94.9291 228.893 94.7424C229.49 94.5371 229.976 94.3038 230.349 94.0424C230.741 93.7811 230.937 93.4358 230.937 93.0064V91.1024C230.937 90.4304 230.825 89.8984 230.601 89.5064C230.396 89.0958 230.106 88.8064 229.733 88.6384C229.378 88.4704 228.949 88.3864 228.445 88.3864C228.016 88.3864 227.558 88.4518 227.073 88.5824C226.588 88.6944 226.205 88.9278 225.925 89.2824C226.336 89.3944 226.672 89.6184 226.933 89.9544C227.213 90.2718 227.353 90.6731 227.353 91.1584C227.353 91.6811 227.176 92.0918 226.821 92.3904C226.485 92.6891 226.056 92.8384 225.533 92.8384C224.954 92.8384 224.525 92.6611 224.245 92.3064C223.965 91.9331 223.825 91.5038 223.825 91.0184C223.825 90.5144 223.946 90.1038 224.189 89.7864C224.45 89.4691 224.786 89.1704 225.197 88.8904C225.645 88.5918 226.214 88.3398 226.905 88.1344C227.614 87.9291 228.398 87.8264 229.257 87.8264C230.06 87.8264 230.75 87.9198 231.329 88.1064C231.926 88.2744 232.421 88.5544 232.813 88.9464C233.28 89.3758 233.588 89.9171 233.737 90.5704C233.886 91.2051 233.961 91.9798 233.961 92.8944V100.622C233.961 101.089 234.017 101.425 234.129 101.63C234.26 101.817 234.465 101.91 234.745 101.91C234.932 101.91 235.109 101.864 235.277 101.77C235.464 101.677 235.678 101.537 235.921 101.35L236.201 101.826C235.809 102.144 235.408 102.396 234.997 102.582C234.605 102.769 234.101 102.862 233.485 102.862C232.888 102.862 232.402 102.769 232.029 102.582C231.656 102.396 231.376 102.125 231.189 101.77C231.021 101.416 230.937 100.977 230.937 100.454C230.452 101.238 229.873 101.836 229.201 102.246C228.529 102.657 227.745 102.862 226.849 102.862ZM228.193 101.518C228.716 101.518 229.201 101.369 229.649 101.07C230.116 100.772 230.545 100.324 230.937 99.7264V94.1544C230.732 94.4531 230.433 94.7144 230.041 94.9384C229.649 95.1438 229.229 95.3584 228.781 95.5824C228.333 95.8064 227.904 96.0678 227.493 96.3664C227.101 96.6464 226.774 97.0104 226.513 97.4584C226.252 97.9064 226.121 98.4758 226.121 99.1664C226.121 99.8944 226.308 100.473 226.681 100.902C227.054 101.313 227.558 101.518 228.193 101.518Z" fill="white"/>
<path d="M243.762 88.2184V88.8064C243.314 88.8064 242.913 88.8438 242.558 88.9184C242.222 88.9744 241.998 89.1424 241.886 89.4224C241.793 89.7024 241.868 90.1971 242.11 90.9064L244.938 99.2504L244.686 99.3624L248.522 88.1344L249.082 88.3864L244.238 102.778C244.089 102.778 243.94 102.778 243.79 102.778C243.641 102.778 243.482 102.778 243.314 102.778L238.778 90.3744C238.48 89.6278 238.181 89.1798 237.882 89.0304C237.602 88.8811 237.36 88.8064 237.154 88.8064V88.2184C237.602 88.2744 238.06 88.3211 238.526 88.3584C239.012 88.3771 239.544 88.3864 240.122 88.3864C240.701 88.3864 241.308 88.3678 241.942 88.3304C242.596 88.2931 243.202 88.2558 243.762 88.2184ZM258.882 88.2184V88.7784C258.528 88.8344 258.192 89.0118 257.874 89.3104C257.557 89.6091 257.277 90.1411 257.034 90.9064L253.086 102.778C252.937 102.778 252.778 102.778 252.61 102.778C252.461 102.778 252.312 102.778 252.162 102.778L247.822 91.5504L248.522 88.1344C248.709 88.1531 248.886 88.1624 249.054 88.1624C249.241 88.1438 249.428 88.1344 249.614 88.1344L253.814 99.6144L253.562 99.6424L256.026 92.0264C256.269 91.2611 256.362 90.6544 256.306 90.2064C256.25 89.7584 256.054 89.4224 255.718 89.1984C255.382 88.9744 254.878 88.8344 254.206 88.7784V88.2184C254.542 88.2371 254.841 88.2558 255.102 88.2744C255.382 88.2744 255.653 88.2838 255.914 88.3024C256.194 88.3024 256.474 88.3024 256.754 88.3024C257.165 88.3024 257.548 88.2931 257.902 88.2744C258.276 88.2558 258.602 88.2371 258.882 88.2184Z" fill="white"/>
<path d="M276.079 82.9264C276.788 82.9264 277.367 83.0011 277.815 83.1504C278.282 83.2811 278.674 83.4584 278.991 83.6824C279.252 83.8504 279.467 84.0464 279.635 84.2704C279.822 84.4944 279.971 84.7278 280.083 84.9704C280.195 85.2131 280.251 85.4651 280.251 85.7264C280.251 86.2304 280.064 86.6318 279.691 86.9304C279.336 87.2104 278.935 87.3504 278.487 87.3504C278.039 87.3504 277.647 87.2198 277.311 86.9584C276.994 86.6971 276.835 86.3238 276.835 85.8384C276.835 85.4091 276.984 85.0358 277.283 84.7184C277.582 84.3824 277.955 84.1864 278.403 84.1304C278.31 83.9251 278.076 83.7478 277.703 83.5984C277.348 83.4491 276.91 83.3744 276.387 83.3744C275.416 83.3744 274.614 83.6638 273.979 84.2424C273.363 84.8211 273.055 85.6798 273.055 86.8184C273.055 87.3038 273.139 87.8078 273.307 88.3304C273.494 88.8531 273.848 89.3758 274.371 89.8984C274.688 89.8424 274.996 89.7958 275.295 89.7584C275.612 89.7211 275.864 89.7024 276.051 89.7024C276.387 89.7024 276.648 89.7678 276.835 89.8984C277.04 90.0104 277.143 90.1784 277.143 90.4024C277.143 90.5704 277.068 90.7011 276.919 90.7944C276.77 90.8878 276.583 90.9344 276.359 90.9344C276.004 90.9344 275.64 90.8598 275.267 90.7104C274.894 90.5424 274.604 90.4024 274.399 90.2904C273.372 90.6451 272.542 91.1864 271.907 91.9144C271.291 92.6238 270.983 93.6038 270.983 94.8544C270.983 96.1238 271.319 97.1971 271.991 98.0744C272.663 98.9331 273.578 99.5864 274.735 100.034C275.892 100.482 277.218 100.706 278.711 100.706C279.682 100.706 280.615 100.594 281.511 100.37C282.407 100.146 283.2 99.8198 283.891 99.3904C284.6 98.9424 285.16 98.4104 285.571 97.7944C285.982 97.1784 286.187 96.4691 286.187 95.6664C286.187 95.3304 286.122 94.9011 285.991 94.3784C285.86 93.8558 285.58 93.3424 285.151 92.8384C284.74 92.3344 284.096 91.9331 283.219 91.6344L283.499 91.3544C284.75 91.7464 285.655 92.3904 286.215 93.2864C286.775 94.1824 287.055 95.1904 287.055 96.3104C287.055 97.4864 286.691 98.5971 285.963 99.6424C285.254 100.669 284.236 101.5 282.911 102.134C281.586 102.75 279.99 103.058 278.123 103.058C276.798 103.058 275.556 102.9 274.399 102.582C273.26 102.265 272.262 101.808 271.403 101.21C270.544 100.594 269.872 99.8571 269.387 98.9984C268.902 98.1398 268.659 97.1691 268.659 96.0864C268.659 95.0598 268.855 94.1918 269.247 93.4824C269.658 92.7544 270.162 92.1571 270.759 91.6904C271.356 91.2051 271.954 90.8411 272.551 90.5984C273.148 90.3371 273.634 90.1598 274.007 90.0664C273.391 89.8051 272.859 89.4971 272.411 89.1424C271.982 88.7691 271.646 88.3584 271.403 87.9104C271.179 87.4438 271.067 86.9678 271.067 86.4824C271.067 85.9784 271.188 85.5118 271.431 85.0824C271.674 84.6531 272.01 84.2798 272.439 83.9624C272.887 83.6264 273.41 83.3744 274.007 83.2064C274.623 83.0198 275.314 82.9264 276.079 82.9264ZM286.523 82.4504C287.736 82.4504 288.744 82.7864 289.547 83.4584C290.35 84.1304 290.751 85.0731 290.751 86.2864C290.751 87.0331 290.592 87.6771 290.275 88.2184C289.976 88.7598 289.547 89.2264 288.987 89.6184C288.446 90.0104 287.811 90.3278 287.083 90.5704C286.71 90.7384 286.224 90.9251 285.627 91.1304C285.03 91.3171 284.395 91.5131 283.723 91.7184C283.051 91.9238 282.407 92.1198 281.791 92.3064C281.194 92.4931 280.699 92.6611 280.307 92.8104C279.374 93.0904 278.618 93.4264 278.039 93.8184C277.46 94.1918 277.171 94.6958 277.171 95.3304C277.171 95.8158 277.311 96.2264 277.591 96.5624C277.89 96.8984 278.244 97.1504 278.655 97.3184C279.084 97.4864 279.495 97.5704 279.887 97.5704C280.036 97.5704 280.223 97.5518 280.447 97.5144C280.671 97.4771 280.867 97.4211 281.035 97.3464C281.222 97.2718 281.334 97.1784 281.371 97.0664C281.016 96.9918 280.699 96.8331 280.419 96.5904C280.158 96.3291 280.027 95.9651 280.027 95.4984C280.027 95.0131 280.195 94.6304 280.531 94.3504C280.886 94.0704 281.315 93.9304 281.819 93.9304C282.342 93.9304 282.752 94.0798 283.051 94.3784C283.368 94.6771 283.527 95.0691 283.527 95.5544C283.527 96.0958 283.35 96.5531 282.995 96.9264C282.64 97.2998 282.192 97.5798 281.651 97.7664C281.11 97.9344 280.55 98.0184 279.971 98.0184C279.374 98.0184 278.786 97.9064 278.207 97.6824C277.647 97.4398 277.18 97.0758 276.807 96.5904C276.452 96.0864 276.275 95.4331 276.275 94.6304C276.275 93.8651 276.452 93.2118 276.807 92.6704C277.162 92.1104 277.684 91.6251 278.375 91.2144C279.084 90.8038 279.934 90.4678 280.923 90.2064C281.427 90.0384 282.024 89.8611 282.715 89.6744C283.424 89.4878 284.143 89.2918 284.871 89.0864C285.599 88.8624 286.271 88.6198 286.887 88.3584C287.951 87.9478 288.716 87.5278 289.183 87.0984C289.65 86.6691 289.883 86.1838 289.883 85.6424C289.883 85.1011 289.734 84.6344 289.435 84.2424C289.136 83.8318 288.735 83.5051 288.231 83.2624C287.746 83.0198 287.223 82.8984 286.663 82.8984C286.458 82.8984 286.28 82.9171 286.131 82.9544C286 82.9731 285.907 83.0291 285.851 83.1224C286.168 83.2531 286.411 83.4584 286.579 83.7384C286.747 84.0184 286.831 84.2891 286.831 84.5504C286.831 85.0171 286.654 85.3904 286.299 85.6704C285.944 85.9318 285.524 86.0624 285.039 86.0624C284.591 86.0624 284.19 85.9318 283.835 85.6704C283.48 85.4091 283.303 85.0264 283.303 84.5224C283.303 84.0371 283.462 83.6451 283.779 83.3464C284.096 83.0291 284.498 82.8051 284.983 82.6744C285.487 82.5251 286 82.4504 286.523 82.4504Z" fill="white"/>
<path d="M309.079 82.8424V83.4024C308.463 83.4211 307.996 83.4958 307.679 83.6264C307.361 83.7384 307.147 83.9624 307.035 84.2984C306.923 84.6158 306.867 85.1198 306.867 85.8104V99.6984C306.867 100.37 306.923 100.874 307.035 101.21C307.147 101.546 307.361 101.77 307.679 101.882C307.996 101.994 308.463 102.069 309.079 102.106V102.666C308.631 102.629 308.061 102.61 307.371 102.61C306.699 102.592 306.008 102.582 305.299 102.582C304.515 102.582 303.777 102.592 303.087 102.61C302.415 102.61 301.864 102.629 301.435 102.666V102.106C302.069 102.069 302.545 101.994 302.863 101.882C303.18 101.77 303.385 101.546 303.479 101.21C303.591 100.874 303.647 100.37 303.647 99.6984V85.8104C303.647 85.1198 303.591 84.6158 303.479 84.2984C303.385 83.9624 303.171 83.7384 302.835 83.6264C302.517 83.4958 302.051 83.4211 301.435 83.4024V82.8424C301.864 82.8611 302.415 82.8798 303.087 82.8984C303.777 82.9171 304.515 82.9264 305.299 82.9264C306.008 82.9264 306.699 82.9171 307.371 82.8984C308.061 82.8798 308.631 82.8611 309.079 82.8424Z" fill="white"/>
<path d="M321.779 87.8264C322.526 87.8264 323.132 87.9291 323.599 88.1344C324.084 88.3211 324.486 88.5824 324.803 88.9184C325.139 89.2731 325.372 89.7304 325.503 90.2904C325.652 90.8504 325.727 91.6064 325.727 92.5584V100.062C325.727 100.846 325.876 101.378 326.175 101.658C326.492 101.938 327.015 102.078 327.743 102.078V102.666C327.426 102.648 326.931 102.629 326.259 102.61C325.587 102.573 324.924 102.554 324.271 102.554C323.636 102.554 323.002 102.573 322.367 102.61C321.751 102.629 321.284 102.648 320.967 102.666V102.078C321.602 102.078 322.05 101.938 322.311 101.658C322.572 101.378 322.703 100.846 322.703 100.062V91.7744C322.703 91.2331 322.656 90.7478 322.563 90.3184C322.47 89.8704 322.274 89.5158 321.975 89.2544C321.676 88.9744 321.228 88.8344 320.631 88.8344C319.94 88.8344 319.324 89.0304 318.783 89.4224C318.26 89.8144 317.84 90.3558 317.523 91.0464C317.224 91.7184 317.075 92.4744 317.075 93.3144V100.062C317.075 100.846 317.206 101.378 317.467 101.658C317.747 101.938 318.195 102.078 318.811 102.078V102.666C318.512 102.648 318.055 102.629 317.439 102.61C316.842 102.573 316.216 102.554 315.563 102.554C314.928 102.554 314.266 102.573 313.575 102.61C312.884 102.629 312.371 102.648 312.035 102.666V102.078C312.763 102.078 313.276 101.938 313.575 101.658C313.892 101.378 314.051 100.846 314.051 100.062V91.2704C314.051 90.4304 313.911 89.8144 313.631 89.4224C313.351 89.0118 312.819 88.8064 312.035 88.8064V88.2184C312.632 88.2744 313.211 88.3024 313.771 88.3024C314.406 88.3024 314.994 88.2744 315.535 88.2184C316.095 88.1438 316.608 88.0411 317.075 87.9104V90.9624C317.56 89.8051 318.223 88.9931 319.063 88.5264C319.922 88.0598 320.827 87.8264 321.779 87.8264Z" fill="white"/>
<path d="M337.11 80.7704C337.67 80.7704 338.165 80.8451 338.594 80.9944C339.024 81.1438 339.406 81.3398 339.742 81.5824C340.003 81.8064 340.218 82.0771 340.386 82.3944C340.554 82.7118 340.638 83.0571 340.638 83.4304C340.638 83.8971 340.48 84.2891 340.162 84.6064C339.864 84.9238 339.472 85.0824 338.986 85.0824C338.501 85.0824 338.09 84.9331 337.754 84.6344C337.418 84.3358 337.25 83.9251 337.25 83.4024C337.25 82.9731 337.362 82.6184 337.586 82.3384C337.829 82.0584 338.155 81.8624 338.566 81.7504C338.51 81.6011 338.379 81.4798 338.174 81.3864C337.969 81.2744 337.689 81.2184 337.334 81.2184C336.924 81.2184 336.569 81.3024 336.27 81.4704C335.99 81.6384 335.766 81.8624 335.598 82.1424C335.393 82.4971 335.253 83.0291 335.178 83.7384C335.122 84.4291 335.094 85.4931 335.094 86.9304V88.2464H338.09V88.8064H335.094V99.7824C335.094 100.697 335.346 101.313 335.85 101.63C336.373 101.929 337.073 102.078 337.95 102.078V102.666C337.502 102.648 336.868 102.629 336.046 102.61C335.244 102.573 334.385 102.554 333.47 102.554C332.817 102.554 332.163 102.573 331.51 102.61C330.875 102.629 330.39 102.648 330.054 102.666V102.078C330.782 102.078 331.296 101.938 331.594 101.658C331.912 101.378 332.07 100.846 332.07 100.062V88.8064H329.942V88.2464H332.07C332.07 87.1451 332.117 86.2304 332.21 85.5024C332.322 84.7558 332.49 84.1211 332.714 83.5984C332.938 83.0571 333.237 82.5811 333.61 82.1704C334.002 81.7598 334.497 81.4238 335.094 81.1624C335.71 80.9011 336.382 80.7704 337.11 80.7704Z" fill="white"/>
<path d="M347.17 87.8264C348.42 87.8264 349.531 88.0878 350.502 88.6104C351.472 89.1331 352.247 89.9544 352.826 91.0744C353.404 92.1944 353.694 93.6598 353.694 95.4704C353.694 97.2811 353.404 98.7464 352.826 99.8664C352.247 100.968 351.472 101.78 350.502 102.302C349.531 102.806 348.42 103.058 347.17 103.058C345.938 103.058 344.827 102.806 343.838 102.302C342.848 101.78 342.064 100.968 341.486 99.8664C340.926 98.7464 340.646 97.2811 340.646 95.4704C340.646 93.6598 340.926 92.1944 341.486 91.0744C342.064 89.9544 342.848 89.1331 343.838 88.6104C344.827 88.0878 345.938 87.8264 347.17 87.8264ZM347.17 88.3864C346.199 88.3864 345.406 88.9464 344.79 90.0664C344.174 91.1678 343.866 92.9691 343.866 95.4704C343.866 97.9718 344.174 99.7731 344.79 100.874C345.406 101.957 346.199 102.498 347.17 102.498C348.122 102.498 348.906 101.957 349.522 100.874C350.156 99.7731 350.474 97.9718 350.474 95.4704C350.474 92.9691 350.156 91.1678 349.522 90.0664C348.906 88.9464 348.122 88.3864 347.17 88.3864Z" fill="white"/>
<path d="M365.81 87.8264C366.351 87.8264 366.808 87.9384 367.181 88.1624C367.573 88.3864 367.863 88.6758 368.049 89.0304C368.255 89.3664 368.358 89.7491 368.358 90.1784C368.358 90.7198 368.19 91.1864 367.854 91.5784C367.536 91.9518 367.107 92.1384 366.565 92.1384C366.099 92.1384 365.698 91.9984 365.362 91.7184C365.044 91.4384 364.885 91.0558 364.885 90.5704C364.885 90.1598 364.988 89.8144 365.194 89.5344C365.418 89.2358 365.669 89.0024 365.949 88.8344C365.763 88.6851 365.539 88.6198 365.277 88.6384C364.773 88.6571 364.307 88.8251 363.878 89.1424C363.448 89.4411 363.084 89.8331 362.785 90.3184C362.487 90.7851 362.254 91.2891 362.086 91.8304C361.918 92.3718 361.833 92.8758 361.833 93.3424V99.7824C361.833 100.697 362.086 101.313 362.59 101.63C363.094 101.929 363.794 102.078 364.69 102.078V102.666C364.26 102.648 363.644 102.629 362.841 102.61C362.057 102.573 361.227 102.554 360.349 102.554C359.677 102.554 359.005 102.573 358.333 102.61C357.661 102.629 357.148 102.648 356.793 102.666V102.078C357.521 102.078 358.035 101.938 358.333 101.658C358.651 101.378 358.81 100.846 358.81 100.062V91.2704C358.81 90.4304 358.669 89.8144 358.389 89.4224C358.109 89.0118 357.577 88.8064 356.793 88.8064V88.2184C357.391 88.2744 357.97 88.3024 358.53 88.3024C359.164 88.3024 359.752 88.2744 360.293 88.2184C360.853 88.1438 361.367 88.0411 361.833 87.9104V91.1304C362.057 90.5891 362.356 90.0664 362.729 89.5624C363.103 89.0584 363.551 88.6478 364.073 88.3304C364.596 87.9944 365.175 87.8264 365.81 87.8264Z" fill="white"/>
<path d="M380.122 87.8264C380.831 87.8264 381.428 87.9291 381.914 88.1344C382.399 88.3211 382.791 88.5824 383.09 88.9184C383.426 89.2731 383.659 89.7491 383.79 90.3464C383.92 90.9251 383.986 91.6624 383.986 92.5584V100.062C383.986 100.846 384.135 101.378 384.434 101.658C384.732 101.938 385.236 102.078 385.946 102.078V102.666C385.628 102.648 385.134 102.629 384.462 102.61C383.808 102.573 383.164 102.554 382.53 102.554C381.895 102.554 381.27 102.573 380.654 102.61C380.056 102.629 379.599 102.648 379.282 102.666V102.078C379.898 102.078 380.327 101.938 380.57 101.658C380.831 101.378 380.962 100.846 380.962 100.062V91.7744C380.962 91.2331 380.924 90.7478 380.85 90.3184C380.775 89.8704 380.598 89.5158 380.318 89.2544C380.056 88.9744 379.636 88.8344 379.058 88.8344C378.404 88.8344 377.816 89.0304 377.294 89.4224C376.79 89.8144 376.379 90.3558 376.062 91.0464C375.763 91.7184 375.614 92.4744 375.614 93.3144V100.062C375.614 100.846 375.744 101.378 376.006 101.658C376.267 101.938 376.696 102.078 377.294 102.078V102.666C376.995 102.648 376.547 102.629 375.95 102.61C375.352 102.573 374.736 102.554 374.102 102.554C373.467 102.554 372.804 102.573 372.114 102.61C371.423 102.629 370.91 102.648 370.574 102.666V102.078C371.302 102.078 371.815 101.938 372.114 101.658C372.431 101.378 372.59 100.846 372.59 100.062V91.2704C372.59 90.4304 372.45 89.8144 372.17 89.4224C371.89 89.0118 371.358 88.8064 370.574 88.8064V88.2184C371.171 88.2744 371.75 88.3024 372.31 88.3024C372.944 88.3024 373.532 88.2744 374.074 88.2184C374.634 88.1438 375.147 88.0411 375.614 87.9104V90.9624C376.099 89.8424 376.743 89.0398 377.546 88.5544C378.367 88.0691 379.226 87.8264 380.122 87.8264ZM388.55 87.8264C389.259 87.8264 389.856 87.9291 390.342 88.1344C390.827 88.3211 391.219 88.5824 391.518 88.9184C391.854 89.2731 392.087 89.7491 392.218 90.3464C392.348 90.9251 392.414 91.6624 392.414 92.5584V100.062C392.414 100.846 392.563 101.378 392.862 101.658C393.179 101.938 393.702 102.078 394.43 102.078V102.666C394.112 102.648 393.618 102.629 392.946 102.61C392.274 102.573 391.611 102.554 390.958 102.554C390.323 102.554 389.698 102.573 389.082 102.61C388.484 102.629 388.027 102.648 387.71 102.666V102.078C388.326 102.078 388.755 101.938 388.998 101.658C389.259 101.378 389.39 100.846 389.39 100.062V91.7744C389.39 91.2331 389.352 90.7478 389.278 90.3184C389.203 89.8704 389.026 89.5158 388.746 89.2544C388.466 88.9744 388.027 88.8344 387.43 88.8344C386.776 88.8344 386.188 89.0398 385.666 89.4504C385.162 89.8424 384.751 90.3838 384.434 91.0744C384.135 91.7464 383.986 92.5024 383.986 93.3424L383.874 91.0184C384.378 89.7864 385.05 88.9464 385.89 88.4984C386.748 88.0504 387.635 87.8264 388.55 87.8264Z" fill="white"/>
<path d="M400.661 102.862C399.877 102.862 399.205 102.713 398.645 102.414C398.085 102.116 397.665 101.705 397.385 101.182C397.105 100.66 396.965 100.062 396.965 99.3904C396.965 98.5691 397.152 97.9064 397.525 97.4024C397.899 96.8798 398.375 96.4598 398.953 96.1424C399.551 95.8251 400.176 95.5638 400.829 95.3584C401.501 95.1344 402.127 94.9291 402.705 94.7424C403.303 94.5371 403.788 94.3038 404.161 94.0424C404.553 93.7811 404.749 93.4358 404.749 93.0064V91.1024C404.749 90.4304 404.637 89.8984 404.413 89.5064C404.208 89.0958 403.918 88.8064 403.545 88.6384C403.19 88.4704 402.761 88.3864 402.257 88.3864C401.828 88.3864 401.371 88.4518 400.885 88.5824C400.4 88.6944 400.017 88.9278 399.737 89.2824C400.148 89.3944 400.484 89.6184 400.745 89.9544C401.025 90.2718 401.165 90.6731 401.165 91.1584C401.165 91.6811 400.988 92.0918 400.633 92.3904C400.297 92.6891 399.868 92.8384 399.345 92.8384C398.767 92.8384 398.337 92.6611 398.057 92.3064C397.777 91.9331 397.637 91.5038 397.637 91.0184C397.637 90.5144 397.759 90.1038 398.001 89.7864C398.263 89.4691 398.599 89.1704 399.009 88.8904C399.457 88.5918 400.026 88.3398 400.717 88.1344C401.426 87.9291 402.211 87.8264 403.069 87.8264C403.872 87.8264 404.563 87.9198 405.141 88.1064C405.739 88.2744 406.233 88.5544 406.625 88.9464C407.092 89.3758 407.4 89.9171 407.549 90.5704C407.698 91.2051 407.773 91.9798 407.773 92.8944V100.622C407.773 101.089 407.829 101.425 407.941 101.63C408.072 101.817 408.277 101.91 408.557 101.91C408.744 101.91 408.921 101.864 409.089 101.77C409.276 101.677 409.491 101.537 409.733 101.35L410.013 101.826C409.621 102.144 409.22 102.396 408.809 102.582C408.417 102.769 407.913 102.862 407.297 102.862C406.7 102.862 406.215 102.769 405.841 102.582C405.468 102.396 405.188 102.125 405.001 101.77C404.833 101.416 404.749 100.977 404.749 100.454C404.264 101.238 403.685 101.836 403.013 102.246C402.341 102.657 401.557 102.862 400.661 102.862ZM402.005 101.518C402.528 101.518 403.013 101.369 403.461 101.07C403.928 100.772 404.357 100.324 404.749 99.7264V94.1544C404.544 94.4531 404.245 94.7144 403.853 94.9384C403.461 95.1438 403.041 95.3584 402.593 95.5824C402.145 95.8064 401.716 96.0678 401.305 96.3664C400.913 96.6464 400.586 97.0104 400.325 97.4584C400.064 97.9064 399.933 98.4758 399.933 99.1664C399.933 99.8944 400.12 100.473 400.493 100.902C400.866 101.313 401.371 101.518 402.005 101.518Z" fill="white"/>
<path d="M416.87 83.5984V88.2464H420.734V88.8064H416.87V99.8104C416.87 100.576 417.01 101.117 417.29 101.434C417.57 101.752 417.971 101.91 418.494 101.91C418.979 101.91 419.409 101.714 419.782 101.322C420.174 100.93 420.51 100.268 420.79 99.3344L421.322 99.5304C421.098 100.52 420.697 101.36 420.118 102.05C419.558 102.722 418.727 103.058 417.626 103.058C416.991 103.058 416.459 102.974 416.03 102.806C415.601 102.657 415.227 102.433 414.91 102.134C414.499 101.705 414.219 101.192 414.07 100.594C413.921 99.9971 413.846 99.2038 413.846 98.2144V88.8064H411.27V88.2464H413.846V84.1584C414.425 84.1398 414.966 84.0931 415.47 84.0184C415.974 83.9251 416.441 83.7851 416.87 83.5984Z" fill="white"/>
<path d="M426.321 81.1624C426.9 81.1624 427.385 81.3491 427.777 81.7224C428.169 82.0771 428.365 82.5251 428.365 83.0664C428.365 83.6078 428.169 84.0651 427.777 84.4384C427.385 84.7931 426.9 84.9704 426.321 84.9704C425.742 84.9704 425.257 84.7931 424.865 84.4384C424.473 84.0651 424.277 83.6078 424.277 83.0664C424.277 82.5251 424.473 82.0771 424.865 81.7224C425.257 81.3491 425.742 81.1624 426.321 81.1624ZM428.001 87.9104V100.062C428.001 100.846 428.15 101.378 428.449 101.658C428.766 101.938 429.289 102.078 430.017 102.078V102.666C429.7 102.648 429.205 102.629 428.533 102.61C427.88 102.573 427.208 102.554 426.517 102.554C425.864 102.554 425.192 102.573 424.501 102.61C423.81 102.629 423.297 102.648 422.961 102.666V102.078C423.689 102.078 424.202 101.938 424.501 101.658C424.818 101.378 424.977 100.846 424.977 100.062V91.2704C424.977 90.4304 424.837 89.8144 424.557 89.4224C424.277 89.0118 423.745 88.8064 422.961 88.8064V88.2184C423.558 88.2744 424.137 88.3024 424.697 88.3024C425.332 88.3024 425.92 88.2744 426.461 88.2184C427.021 88.1438 427.534 88.0411 428.001 87.9104Z" fill="white"/>
<path d="M439.476 87.8264C440.726 87.8264 441.837 88.0878 442.808 88.6104C443.778 89.1331 444.553 89.9544 445.132 91.0744C445.71 92.1944 446 93.6598 446 95.4704C446 97.2811 445.71 98.7464 445.132 99.8664C444.553 100.968 443.778 101.78 442.808 102.302C441.837 102.806 440.726 103.058 439.476 103.058C438.244 103.058 437.133 102.806 436.144 102.302C435.154 101.78 434.37 100.968 433.792 99.8664C433.232 98.7464 432.952 97.2811 432.952 95.4704C432.952 93.6598 433.232 92.1944 433.792 91.0744C434.37 89.9544 435.154 89.1331 436.144 88.6104C437.133 88.0878 438.244 87.8264 439.476 87.8264ZM439.476 88.3864C438.505 88.3864 437.712 88.9464 437.096 90.0664C436.48 91.1678 436.172 92.9691 436.172 95.4704C436.172 97.9718 436.48 99.7731 437.096 100.874C437.712 101.957 438.505 102.498 439.476 102.498C440.428 102.498 441.212 101.957 441.828 100.874C442.462 99.7731 442.78 97.9718 442.78 95.4704C442.78 92.9691 442.462 91.1678 441.828 90.0664C441.212 88.9464 440.428 88.3864 439.476 88.3864Z" fill="white"/>
<path d="M458.843 87.8264C459.59 87.8264 460.197 87.9291 460.663 88.1344C461.149 88.3211 461.55 88.5824 461.867 88.9184C462.203 89.2731 462.437 89.7304 462.567 90.2904C462.717 90.8504 462.791 91.6064 462.791 92.5584V100.062C462.791 100.846 462.941 101.378 463.239 101.658C463.557 101.938 464.079 102.078 464.807 102.078V102.666C464.49 102.648 463.995 102.629 463.323 102.61C462.651 102.573 461.989 102.554 461.335 102.554C460.701 102.554 460.066 102.573 459.431 102.61C458.815 102.629 458.349 102.648 458.031 102.666V102.078C458.666 102.078 459.114 101.938 459.375 101.658C459.637 101.378 459.767 100.846 459.767 100.062V91.7744C459.767 91.2331 459.721 90.7478 459.627 90.3184C459.534 89.8704 459.338 89.5158 459.039 89.2544C458.741 88.9744 458.293 88.8344 457.695 88.8344C457.005 88.8344 456.389 89.0304 455.847 89.4224C455.325 89.8144 454.905 90.3558 454.587 91.0464C454.289 91.7184 454.139 92.4744 454.139 93.3144V100.062C454.139 100.846 454.27 101.378 454.531 101.658C454.811 101.938 455.259 102.078 455.875 102.078V102.666C455.577 102.648 455.119 102.629 454.503 102.61C453.906 102.573 453.281 102.554 452.627 102.554C451.993 102.554 451.33 102.573 450.639 102.61C449.949 102.629 449.435 102.648 449.099 102.666V102.078C449.827 102.078 450.341 101.938 450.639 101.658C450.957 101.378 451.115 100.846 451.115 100.062V91.2704C451.115 90.4304 450.975 89.8144 450.695 89.4224C450.415 89.0118 449.883 88.8064 449.099 88.8064V88.2184C449.697 88.2744 450.275 88.3024 450.835 88.3024C451.47 88.3024 452.058 88.2744 452.599 88.2184C453.159 88.1438 453.673 88.0411 454.139 87.9104V90.9624C454.625 89.8051 455.287 88.9931 456.127 88.5264C456.986 88.0598 457.891 87.8264 458.843 87.8264Z" fill="white"/>
<path d="M484.93 82.4504C486.162 82.4504 487.17 82.6371 487.954 83.0104C488.757 83.3651 489.466 83.7851 490.082 84.2704C490.456 84.5504 490.736 84.5878 490.922 84.3824C491.128 84.1584 491.268 83.6451 491.342 82.8424H491.986C491.949 83.5518 491.921 84.4104 491.902 85.4184C491.884 86.4078 491.874 87.7331 491.874 89.3944H491.23C491.1 88.5731 490.969 87.9011 490.838 87.3784C490.726 86.8558 490.568 86.4078 490.362 86.0344C490.176 85.6611 489.914 85.2971 489.578 84.9424C489.037 84.2704 488.374 83.7851 487.59 83.4864C486.806 83.1878 485.976 83.0384 485.098 83.0384C484.146 83.0384 483.306 83.2811 482.578 83.7664C481.85 84.2331 481.234 84.9051 480.73 85.7824C480.245 86.6598 479.872 87.6958 479.61 88.8904C479.349 90.0851 479.218 91.3918 479.218 92.8104C479.218 94.2664 479.358 95.5918 479.638 96.7864C479.918 97.9624 480.32 98.9798 480.842 99.8384C481.384 100.678 482.028 101.332 482.774 101.798C483.54 102.246 484.389 102.47 485.322 102.47C486.088 102.47 486.881 102.321 487.702 102.022C488.524 101.705 489.177 101.229 489.662 100.594C490.185 100.034 490.54 99.4091 490.726 98.7184C490.932 98.0091 491.1 97.0478 491.23 95.8344H491.874C491.874 97.5518 491.884 98.9424 491.902 100.006C491.921 101.052 491.949 101.938 491.986 102.666H491.342C491.268 101.864 491.137 101.36 490.95 101.154C490.782 100.949 490.493 100.977 490.082 101.238C489.392 101.724 488.654 102.153 487.87 102.526C487.105 102.881 486.116 103.058 484.902 103.058C483.054 103.058 481.44 102.657 480.058 101.854C478.677 101.052 477.604 99.8944 476.838 98.3824C476.073 96.8704 475.69 95.0504 475.69 92.9224C475.69 90.8318 476.082 89.0024 476.866 87.4344C477.669 85.8664 478.761 84.6438 480.142 83.7664C481.524 82.8891 483.12 82.4504 484.93 82.4504Z" fill="white"/>
<path d="M502.608 87.8264C503.859 87.8264 504.969 88.0878 505.94 88.6104C506.911 89.1331 507.685 89.9544 508.264 91.0744C508.843 92.1944 509.132 93.6598 509.132 95.4704C509.132 97.2811 508.843 98.7464 508.264 99.8664C507.685 100.968 506.911 101.78 505.94 102.302C504.969 102.806 503.859 103.058 502.608 103.058C501.376 103.058 500.265 102.806 499.276 102.302C498.287 101.78 497.503 100.968 496.924 99.8664C496.364 98.7464 496.084 97.2811 496.084 95.4704C496.084 93.6598 496.364 92.1944 496.924 91.0744C497.503 89.9544 498.287 89.1331 499.276 88.6104C500.265 88.0878 501.376 87.8264 502.608 87.8264ZM502.608 88.3864C501.637 88.3864 500.844 88.9464 500.228 90.0664C499.612 91.1678 499.304 92.9691 499.304 95.4704C499.304 97.9718 499.612 99.7731 500.228 100.874C500.844 101.957 501.637 102.498 502.608 102.498C503.56 102.498 504.344 101.957 504.96 100.874C505.595 99.7731 505.912 97.9718 505.912 95.4704C505.912 92.9691 505.595 91.1678 504.96 90.0664C504.344 88.9464 503.56 88.3864 502.608 88.3864Z" fill="white"/>
<path d="M516.83 80.7144V100.062C516.83 100.846 516.98 101.378 517.278 101.658C517.596 101.938 518.118 102.078 518.846 102.078V102.666C518.529 102.648 518.034 102.629 517.362 102.61C516.69 102.573 516.018 102.554 515.346 102.554C514.674 102.554 513.993 102.573 513.302 102.61C512.63 102.629 512.126 102.648 511.79 102.666V102.078C512.518 102.078 513.032 101.938 513.33 101.658C513.648 101.378 513.806 100.846 513.806 100.062V84.0744C513.806 83.2344 513.666 82.6184 513.386 82.2264C513.106 81.8158 512.574 81.6104 511.79 81.6104V81.0224C512.388 81.0784 512.966 81.1064 513.526 81.1064C514.142 81.1064 514.73 81.0784 515.29 81.0224C515.85 80.9478 516.364 80.8451 516.83 80.7144Z" fill="white"/>
<path d="M526.236 80.7144V100.062C526.236 100.846 526.385 101.378 526.684 101.658C527.001 101.938 527.524 102.078 528.252 102.078V102.666C527.934 102.648 527.44 102.629 526.768 102.61C526.096 102.573 525.424 102.554 524.752 102.554C524.08 102.554 523.398 102.573 522.708 102.61C522.036 102.629 521.531 102.648 521.195 102.666V102.078C521.923 102.078 522.437 101.938 522.736 101.658C523.053 101.378 523.211 100.846 523.211 100.062V84.0744C523.211 83.2344 523.072 82.6184 522.792 82.2264C522.512 81.8158 521.979 81.6104 521.195 81.6104V81.0224C521.793 81.0784 522.372 81.1064 522.932 81.1064C523.548 81.1064 524.135 81.0784 524.695 81.0224C525.255 80.9478 525.769 80.8451 526.236 80.7144Z" fill="white"/>
<path d="M537.385 87.8264C539.027 87.8264 540.315 88.3211 541.249 89.3104C542.182 90.2998 542.649 91.8678 542.649 94.0144H532.989L532.933 93.4824H539.681C539.699 92.5678 539.625 91.7278 539.457 90.9624C539.289 90.1784 539.027 89.5531 538.673 89.0864C538.318 88.6198 537.851 88.3864 537.273 88.3864C536.47 88.3864 535.77 88.8158 535.173 89.6744C534.594 90.5144 534.239 91.8678 534.109 93.7344L534.193 93.8744C534.174 94.1358 534.155 94.4251 534.137 94.7424C534.118 95.0411 534.109 95.3398 534.109 95.6384C534.109 96.9264 534.305 98.0091 534.697 98.8864C535.089 99.7638 535.602 100.426 536.237 100.874C536.871 101.304 537.515 101.518 538.169 101.518C538.673 101.518 539.158 101.444 539.625 101.294C540.11 101.126 540.567 100.856 540.997 100.482C541.426 100.09 541.809 99.5584 542.145 98.8864L542.705 99.1104C542.481 99.7451 542.135 100.37 541.669 100.986C541.202 101.602 540.605 102.106 539.877 102.498C539.149 102.872 538.299 103.058 537.329 103.058C536.022 103.058 534.883 102.769 533.913 102.19C532.942 101.593 532.195 100.744 531.673 99.6424C531.15 98.5411 530.889 97.2344 530.889 95.7224C530.889 94.0611 531.159 92.6424 531.701 91.4664C532.242 90.2904 532.998 89.3944 533.969 88.7784C534.958 88.1438 536.097 87.8264 537.385 87.8264Z" fill="white"/>
<path d="M552.809 87.8264C553.444 87.8264 554.051 87.9104 554.629 88.0784C555.208 88.2278 555.712 88.4424 556.141 88.7224C556.589 89.0024 556.925 89.3384 557.149 89.7304C557.392 90.1224 557.513 90.5518 557.513 91.0184C557.513 91.5784 557.355 92.0171 557.037 92.3344C556.72 92.6518 556.309 92.8104 555.805 92.8104C555.301 92.8104 554.881 92.6704 554.545 92.3904C554.209 92.1104 554.041 91.7091 554.041 91.1864C554.041 90.7011 554.181 90.3091 554.461 90.0104C554.741 89.6931 555.068 89.4878 555.441 89.3944C555.273 89.1144 554.975 88.8811 554.545 88.6944C554.135 88.4891 553.687 88.3864 553.201 88.3864C552.697 88.3864 552.212 88.5171 551.745 88.7784C551.297 89.0398 550.896 89.4411 550.541 89.9824C550.187 90.5238 549.897 91.2238 549.673 92.0824C549.468 92.9411 549.365 93.9771 549.365 95.1904C549.365 96.7584 549.543 98.0091 549.897 98.9424C550.271 99.8571 550.756 100.51 551.353 100.902C551.951 101.294 552.595 101.49 553.285 101.49C553.733 101.49 554.191 101.406 554.657 101.238C555.143 101.07 555.6 100.79 556.029 100.398C556.477 100.006 556.869 99.4744 557.205 98.8024L557.737 98.9984C557.532 99.6144 557.205 100.24 556.757 100.874C556.328 101.509 555.759 102.032 555.049 102.442C554.34 102.853 553.472 103.058 552.445 103.058C551.269 103.058 550.205 102.769 549.253 102.19C548.301 101.612 547.545 100.772 546.985 99.6704C546.425 98.5504 546.145 97.1878 546.145 95.5824C546.145 94.0144 546.425 92.6518 546.985 91.4944C547.564 90.3184 548.357 89.4131 549.365 88.7784C550.373 88.1438 551.521 87.8264 552.809 87.8264Z" fill="white"/>
<path d="M565.416 83.5984V88.2464H569.28V88.8064H565.416V99.8104C565.416 100.576 565.556 101.117 565.836 101.434C566.116 101.752 566.518 101.91 567.04 101.91C567.526 101.91 567.955 101.714 568.328 101.322C568.72 100.93 569.056 100.268 569.336 99.3344L569.868 99.5304C569.644 100.52 569.243 101.36 568.664 102.05C568.104 102.722 567.274 103.058 566.172 103.058C565.538 103.058 565.006 102.974 564.576 102.806C564.147 102.657 563.774 102.433 563.456 102.134C563.046 101.705 562.766 101.192 562.616 100.594C562.467 99.9971 562.392 99.2038 562.392 98.2144V88.8064H559.816V88.2464H562.392V84.1584C562.971 84.1398 563.512 84.0931 564.016 84.0184C564.52 83.9251 564.987 83.7851 565.416 83.5984Z" fill="white"/>
<path d="M574.868 81.1624C575.446 81.1624 575.932 81.3491 576.324 81.7224C576.716 82.0771 576.912 82.5251 576.912 83.0664C576.912 83.6078 576.716 84.0651 576.324 84.4384C575.932 84.7931 575.446 84.9704 574.868 84.9704C574.289 84.9704 573.804 84.7931 573.412 84.4384C573.02 84.0651 572.824 83.6078 572.824 83.0664C572.824 82.5251 573.02 82.0771 573.412 81.7224C573.804 81.3491 574.289 81.1624 574.868 81.1624ZM576.548 87.9104V100.062C576.548 100.846 576.697 101.378 576.996 101.658C577.313 101.938 577.836 102.078 578.564 102.078V102.666C578.246 102.648 577.752 102.629 577.08 102.61C576.426 102.573 575.754 102.554 575.064 102.554C574.41 102.554 573.738 102.573 573.048 102.61C572.357 102.629 571.844 102.648 571.508 102.666V102.078C572.236 102.078 572.749 101.938 573.048 101.658C573.365 101.378 573.524 100.846 573.524 100.062V91.2704C573.524 90.4304 573.384 89.8144 573.104 89.4224C572.824 89.0118 572.292 88.8064 571.508 88.8064V88.2184C572.105 88.2744 572.684 88.3024 573.244 88.3024C573.878 88.3024 574.466 88.2744 575.008 88.2184C575.568 88.1438 576.081 88.0411 576.548 87.9104Z" fill="white"/>
<path d="M594.043 88.2184V88.7784C593.688 88.8344 593.352 89.0211 593.035 89.3384C592.736 89.6371 592.456 90.1598 592.195 90.9064L587.771 102.778C587.621 102.778 587.463 102.778 587.295 102.778C587.145 102.778 586.996 102.778 586.847 102.778L581.751 90.3744C581.452 89.6464 581.153 89.2078 580.855 89.0584C580.575 88.8904 580.332 88.8064 580.127 88.8064V88.2184C580.575 88.2558 581.032 88.2931 581.499 88.3304C581.984 88.3491 582.516 88.3584 583.095 88.3584C583.673 88.3584 584.28 88.3491 584.915 88.3304C585.568 88.2931 586.175 88.2558 586.735 88.2184V88.8064C586.287 88.8064 585.885 88.8344 585.531 88.8904C585.195 88.9464 584.971 89.1144 584.859 89.3944C584.765 89.6558 584.831 90.1131 585.055 90.7664L588.499 99.4464L588.275 99.6704L591.159 92.0264C591.439 91.2798 591.551 90.6824 591.495 90.2344C591.439 89.7678 591.243 89.4224 590.907 89.1984C590.571 88.9558 590.085 88.8158 589.451 88.7784V88.2184C589.768 88.2371 590.057 88.2558 590.319 88.2744C590.599 88.2744 590.86 88.2838 591.103 88.3024C591.364 88.3024 591.635 88.3024 591.915 88.3024C592.325 88.3024 592.708 88.2931 593.063 88.2744C593.436 88.2558 593.763 88.2371 594.043 88.2184Z" fill="white"/>
<path d="M602.621 87.8264C604.264 87.8264 605.552 88.3211 606.485 89.3104C607.419 90.2998 607.885 91.8678 607.885 94.0144H598.225L598.169 93.4824H604.917C604.936 92.5678 604.861 91.7278 604.693 90.9624C604.525 90.1784 604.264 89.5531 603.909 89.0864C603.555 88.6198 603.088 88.3864 602.509 88.3864C601.707 88.3864 601.007 88.8158 600.409 89.6744C599.831 90.5144 599.476 91.8678 599.345 93.7344L599.429 93.8744C599.411 94.1358 599.392 94.4251 599.373 94.7424C599.355 95.0411 599.345 95.3398 599.345 95.6384C599.345 96.9264 599.541 98.0091 599.933 98.8864C600.325 99.7638 600.839 100.426 601.473 100.874C602.108 101.304 602.752 101.518 603.405 101.518C603.909 101.518 604.395 101.444 604.861 101.294C605.347 101.126 605.804 100.856 606.233 100.482C606.663 100.09 607.045 99.5584 607.381 98.8864L607.941 99.1104C607.717 99.7451 607.372 100.37 606.905 100.986C606.439 101.602 605.841 102.106 605.113 102.498C604.385 102.872 603.536 103.058 602.565 103.058C601.259 103.058 600.12 102.769 599.149 102.19C598.179 101.593 597.432 100.744 596.909 99.6424C596.387 98.5411 596.125 97.2344 596.125 95.7224C596.125 94.0611 596.396 92.6424 596.937 91.4664C597.479 90.2904 598.235 89.3944 599.205 88.7784C600.195 88.1438 601.333 87.8264 602.621 87.8264Z" fill="white"/>
<path d="M124.546 4.44248C117.229 1.48083 108.344 0 97.8916 0C79.9475 0 63.9198 4.09405 49.8084 12.2821C35.8712 20.4702 24.9828 31.9684 17.1432 46.7766C13.2621 54.1075 10.3417 61.972 8.38202 70.3703H53.6024C55.5804 56.0795 59.2808 43.5111 64.7037 32.6652C73.2403 15.418 86.3064 6.79437 103.902 6.79437C110.174 6.79437 116.184 7.92677 121.933 10.1916C127.682 12.2821 132.735 15.418 137.09 19.5991C143.362 24.6514 147.804 30.5747 150.417 37.369C153.031 44.1634 155.121 54.0065 156.689 66.8984H162.699C162.699 36.5851 163.048 15.5051 163.745 3.65852H157.734C156.689 14.1114 154.424 19.3378 150.94 19.3378C149.546 19.3378 147.891 18.5539 145.975 16.9859C139.006 11.5853 131.863 7.40413 124.546 4.44248Z" fill="url(#paint0_linear_353_878)"/>
<path d="M52.8406 116.086H6.6C8.28225 128.184 11.7095 139.053 16.8819 148.692C24.5473 162.803 35.2615 173.605 49.0244 181.096C62.9616 188.587 79.1636 192.333 97.6303 192.333C107.735 192.333 116.358 190.939 123.501 188.152C130.644 185.19 138.135 180.922 145.975 175.347C148.24 173.953 150.069 173.256 151.463 173.256C153.205 173.256 154.511 174.476 155.382 176.915C156.428 179.18 157.212 183.099 157.734 188.674H163.745C163.048 176.305 162.699 154.354 162.699 122.821H156.689C155.295 136.933 153.292 147.647 150.679 154.964C148.24 162.281 143.797 168.378 137.351 173.256C133.344 177.438 128.379 180.66 122.456 182.925C116.707 185.016 110.871 186.061 104.947 186.061C87.3516 186.061 74.1113 177.525 65.2264 160.452C58.7032 147.917 54.5746 133.128 52.8406 116.086Z" fill="url(#paint1_linear_353_878)"/>
<path d="M206.883 116.086H248.433V164.11C248.433 169.685 248.869 173.779 249.74 176.392C250.611 178.831 252.092 180.486 254.182 181.357C256.447 182.228 260.019 182.664 264.897 182.664H277.701C289.548 182.664 299.74 177.35 308.276 166.723C316.987 156.096 322.649 141.985 325.262 124.389H331.272C330.75 130.312 330.488 137.978 330.488 147.385C330.488 164.11 331.098 177.873 332.318 188.674C320.471 188.152 300.523 187.89 272.475 187.89C234.496 187.89 206.099 188.152 187.284 188.674V183.448C193.033 183.099 197.214 182.403 199.828 181.357C202.615 180.312 204.444 178.309 205.315 175.347C206.361 172.385 206.883 167.594 206.883 160.974V116.086Z" fill="url(#paint2_linear_353_878)"/>
<path d="M248.433 70.3703H206.883V31.3586C206.883 24.7385 206.361 19.9476 205.315 16.9859C204.444 14.0243 202.615 12.0208 199.828 10.9755C197.214 9.93023 193.033 9.23337 187.284 8.88495V3.65852C196.169 4.18116 209.932 4.44248 228.573 4.44248C246.343 4.44248 260.019 4.18116 269.6 3.65852V8.88495C263.329 9.23337 258.712 9.93023 255.75 10.9755C252.963 12.0208 251.047 14.0243 250.001 16.9859C248.956 19.9476 248.433 24.7385 248.433 31.3586V70.3703Z" fill="url(#paint3_linear_353_878)"/>
<path d="M366.637 116.086V160.974C366.637 167.594 366.114 172.385 365.069 175.347C364.198 178.309 362.368 180.312 359.581 181.357C356.968 182.403 352.786 183.099 347.037 183.448V188.674C355.922 188.152 369.685 187.89 388.326 187.89C405.225 187.89 418.378 188.152 427.786 188.674V183.448C421.863 183.099 417.594 182.403 414.981 181.357C412.368 180.312 410.539 178.309 409.493 175.347C408.622 172.385 408.187 167.594 408.187 160.974V116.086H366.637Z" fill="url(#paint4_linear_353_878)"/>
<path d="M408.187 70.3703H366.637V31.3586C366.637 24.7385 366.114 19.9476 365.069 16.9859C364.198 14.0243 362.368 12.0208 359.581 10.9755C356.968 9.93023 352.786 9.23337 347.037 8.88495V3.65852C355.922 4.18116 369.685 4.44248 388.326 4.44248C405.225 4.44248 418.378 4.18116 427.786 3.65852V8.88495C421.863 9.23337 417.594 9.93023 414.981 10.9755C412.368 12.0208 410.539 14.0243 409.493 16.9859C408.622 19.9476 408.187 24.7385 408.187 31.3586V70.3703Z" fill="url(#paint5_linear_353_878)"/>
<path d="M446.815 116.086C448.497 128.184 451.924 139.053 457.097 148.692C464.762 162.803 475.476 173.605 489.239 181.096C503.176 188.587 519.378 192.333 537.845 192.333C547.95 192.333 556.573 190.939 563.716 188.152C570.859 185.19 578.35 180.922 586.19 175.347C588.455 173.953 590.284 173.256 591.677 173.256C593.42 173.256 594.726 174.476 595.597 176.915C596.643 179.18 597.427 183.099 597.949 188.674H603.96C603.263 176.305 602.914 154.354 602.914 122.821H596.904C595.51 136.933 593.507 147.647 590.893 154.964C588.455 162.281 584.012 168.378 577.566 173.256C573.559 177.438 568.594 180.66 562.671 182.925C556.922 185.016 551.086 186.061 545.162 186.061C527.567 186.061 514.326 177.525 505.441 160.452C498.918 147.917 494.789 133.128 493.056 116.086H446.815Z" fill="url(#paint6_linear_353_878)"/>
<path d="M493.817 70.3703H448.597C450.557 61.972 453.477 54.1075 457.358 46.7766C465.198 31.9684 476.086 20.4702 490.023 12.2821C504.135 4.09405 520.162 0 538.107 0C548.559 0 557.444 1.48083 564.761 4.44248C572.078 7.40413 579.221 11.5853 586.19 16.9859C588.106 18.5539 589.761 19.3378 591.155 19.3378C594.639 19.3378 596.904 14.1114 597.949 3.65852H603.96C603.263 15.5051 602.914 36.5851 602.914 66.8984H596.904C595.336 54.0065 593.245 44.1634 590.632 37.369C588.019 30.5747 583.576 24.6514 577.305 19.5991C572.949 15.418 567.897 12.2821 562.148 10.1916C556.399 7.92677 550.389 6.79437 544.117 6.79437C526.521 6.79437 513.455 15.418 504.919 32.6652C499.496 43.5111 495.795 56.0795 493.817 70.3703Z" fill="url(#paint7_linear_353_878)"/>
<defs>
<linearGradient id="paint0_linear_353_878" x1="303.971" y1="0" x2="303.971" y2="192.333" gradientUnits="userSpaceOnUse">
<stop offset="0.28125" stop-color="#EBEBEB"/>
<stop offset="0.505233" stop-color="#E7E7E7"/>
<stop offset="0.739583" stop-color="#FBFBFB"/>
</linearGradient>
<linearGradient id="paint1_linear_353_878" x1="303.971" y1="0" x2="303.971" y2="192.333" gradientUnits="userSpaceOnUse">
<stop offset="0.28125" stop-color="#EBEBEB"/>
<stop offset="0.505233" stop-color="#E7E7E7"/>
<stop offset="0.739583" stop-color="#FBFBFB"/>
</linearGradient>
<linearGradient id="paint2_linear_353_878" x1="303.971" y1="0" x2="303.971" y2="192.333" gradientUnits="userSpaceOnUse">
<stop offset="0.28125" stop-color="#EBEBEB"/>
<stop offset="0.505233" stop-color="#E7E7E7"/>
<stop offset="0.739583" stop-color="#FBFBFB"/>
</linearGradient>
<linearGradient id="paint3_linear_353_878" x1="303.971" y1="0" x2="303.971" y2="192.333" gradientUnits="userSpaceOnUse">
<stop offset="0.28125" stop-color="#EBEBEB"/>
<stop offset="0.505233" stop-color="#E7E7E7"/>
<stop offset="0.739583" stop-color="#FBFBFB"/>
</linearGradient>
<linearGradient id="paint4_linear_353_878" x1="303.971" y1="0" x2="303.971" y2="192.333" gradientUnits="userSpaceOnUse">
<stop offset="0.28125" stop-color="#EBEBEB"/>
<stop offset="0.505233" stop-color="#E7E7E7"/>
<stop offset="0.739583" stop-color="#FBFBFB"/>
</linearGradient>
<linearGradient id="paint5_linear_353_878" x1="303.971" y1="0" x2="303.971" y2="192.333" gradientUnits="userSpaceOnUse">
<stop offset="0.28125" stop-color="#EBEBEB"/>
<stop offset="0.505233" stop-color="#E7E7E7"/>
<stop offset="0.739583" stop-color="#FBFBFB"/>
</linearGradient>
<linearGradient id="paint6_linear_353_878" x1="303.971" y1="0" x2="303.971" y2="192.333" gradientUnits="userSpaceOnUse">
<stop offset="0.28125" stop-color="#EBEBEB"/>
<stop offset="0.505233" stop-color="#E7E7E7"/>
<stop offset="0.739583" stop-color="#FBFBFB"/>
</linearGradient>
<linearGradient id="paint7_linear_353_878" x1="303.971" y1="0" x2="303.971" y2="192.333" gradientUnits="userSpaceOnUse">
<stop offset="0.28125" stop-color="#EBEBEB"/>
<stop offset="0.505233" stop-color="#E7E7E7"/>
<stop offset="0.739583" stop-color="#FBFBFB"/>
</linearGradient>
</defs>
</svg>
