<svg width="24" height="24" viewBox="0 0 24 24" fill="none" xmlns="http://www.w3.org/2000/svg">
<g id="LinkedIn svg">
<rect width="24" height="24" rx="12" fill="white"/>
<g id="Path 2520">
<path d="M7.44209 8.64799C7.15692 8.64803 6.87814 8.57043 6.641 8.42499C6.40386 8.27954 6.21903 8.07279 6.10986 7.83088C6.00068 7.58897 5.97207 7.32277 6.02765 7.06593C6.08324 6.80909 6.22052 6.57315 6.42212 6.38796C6.62373 6.20276 6.88062 6.07662 7.1603 6.02549C7.43997 5.97435 7.72988 6.00053 7.99336 6.10069C8.25684 6.20086 8.48205 6.37052 8.64053 6.58822C8.799 6.80593 8.88361 7.06189 8.88367 7.32376C8.8837 7.49763 8.84643 7.6698 8.77401 7.83044C8.70158 7.99109 8.59541 8.13706 8.46155 8.26003C8.32769 8.383 8.16875 8.48055 7.99383 8.54711C7.81891 8.61368 7.63143 8.64795 7.44209 8.64799Z" fill="#68202C"/>
<path d="M8.68438 17H6.19721V9.65233H8.68438V17Z" fill="#68202C"/>
<path d="M17.999 17H15.5144V13.4271C15.5144 12.575 15.4978 11.4783 14.2221 11.4783C12.9281 11.4783 12.7301 12.4065 12.7301 13.365V16.9998H10.2455V9.65233H12.6307V10.6564H12.6641C12.9028 10.2817 13.2477 9.97335 13.6622 9.76434C14.0766 9.55534 14.545 9.45346 15.0175 9.46957C17.5357 9.46957 18 10.9906 18 12.9693L17.999 17Z" fill="#68202C"/>
</g>
</g>
</svg>
