<svg width="24" height="24" viewBox="0 0 24 24" fill="none" xmlns="http://www.w3.org/2000/svg">
<g id="YouTube svg">
<rect width="24" height="24" rx="12" fill="white"/>
<g id="g10">
<g id="g12">
<path id="path14" d="M19.6865 8.56153C19.514 7.94686 19.0058 7.46282 18.3604 7.29855C17.1907 7 12.5 7 12.5 7C12.5 7 7.80937 7 6.63959 7.29855C5.99423 7.46282 5.48593 7.94686 5.31344 8.56153C5 9.67559 5 12 5 12C5 12 5 14.3244 5.31344 15.4385C5.48593 16.0531 5.99423 16.5372 6.63959 16.7015C7.80937 17 12.5 17 12.5 17C12.5 17 17.1907 17 18.3604 16.7015C19.0058 16.5372 19.514 16.0531 19.6865 15.4385C20 14.3244 20 12 20 12C20 12 20 9.67559 19.6865 8.56153Z" fill="#68202C"/>
<path id="path16" d="M10.8 14.3999L14.4 12L10.8 9.5999V14.3999Z" fill="white"/>
</g>
</g>
</g>
</svg>
